<svg xmlns="http://www.w3.org/2000/svg" xmlns:xlink="http://www.w3.org/1999/xlink" viewBox="0 0 160 600"><defs><linearGradient id="linear-gradient" x1="80" y1="77" x2="80" gradientUnits="userSpaceOnUse"><stop offset="0" stop-opacity="0"/><stop offset="0.01" stop-opacity="0"/><stop offset="1" stop-opacity="0.2"/></linearGradient></defs><title>bg</title><g style="isolation:isolate"><g id="Layer_2" data-name="Layer 2"><g id="Layer_19" data-name="Layer 19"><rect width="160" height="77" opacity="0.9" fill="url(#linear-gradient)" style="mix-blend-mode:darken"/><path d="M0,480H160V342C109.23,354.83,56.68,378.41,0,402.5Z" fill="#ffd237"/><path d="M0,454H160V382.25C116.07,366.26,66,352,0,345Z" fill="#006aff"/><rect y="411" width="160" height="189" fill="#006bff"/><path d="M160,600V538.47C94.06,555.13,46.53,578.48.16,600Z" fill="#001751"/><polygon points="147 492.96 142.5 490 138 492.96 138 600 147 600 147 492.96" fill="#fff"/><polygon points="76.06 499 147 499 147 508 76.06 508 73 503.5 76.06 499" fill="#fff"/><rect x="76" y="514" width="56" height="41" fill="#f2a619"/><rect x="76" y="560" width="56" height="14" fill="#fff"/><path d="M127.26,552H80.74A2.71,2.71,0,0,1,78,549.32v-7.64A2.71,2.71,0,0,1,80.74,539h46.52a2.71,2.71,0,0,1,2.74,2.68v7.64A2.71,2.71,0,0,1,127.26,552ZM80,541.7v7.6a.7.7,0,0,0,.7.7h46.6a.7.7,0,0,0,.7-.7v-7.62a.69.69,0,0,0-.68-.68H80.7A.7.7,0,0,0,80,541.7Z" fill="#fff"/><path d="M111.43,28.77h4.84l1.41,4.61c.46,1.52,1.25,4.39,1.25,4.39a0,0,0,0,0,.07,0s.81-2.92,1.27-4.39l1.47-4.61h3.58l1.44,4.61c.49,1.57,1.25,4.38,1.25,4.38a0,0,0,0,0,.07,0s.79-2.84,1.25-4.38l1.4-4.61h4.5L130.37,44h-4.43l-1.21-3.82c-.46-1.5-1.28-4.41-1.28-4.41a0,0,0,0,0-.07,0s-.81,2.85-1.3,4.38L120.85,44h-4.51Z" fill="#fff"/><rect x="78.83" y="20.73" width="4.9" height="23.26" fill="#fff"/><rect x="87.36" y="20.73" width="4.9" height="23.26" fill="#fff"/><path d="M106.47,36.43a3.55,3.55,0,1,0-7.08,0,3.55,3.55,0,1,0,7.08,0m-11.78,0A8.24,8.24,0,1,1,103,44.5a8.05,8.05,0,0,1-8.26-8.07" fill="#fff"/><path d="M50.48,22.88v4.49h8.66a0,0,0,0,1,0,.06l-8.7,14.84a1.33,1.33,0,0,0-.26.85V44H67.09V39.52H57.71s0,0,0-.07l8.8-15a1.06,1.06,0,0,0,.14-.6v-.94Z" fill="#fff"/><path d="M70.21,28.77h4.9V44h-4.9Zm2.45-7.62a2.76,2.76,0,1,1-2.79,2.76,2.78,2.78,0,0,1,2.79-2.76" fill="#fff"/><path d="M35.58,26.13c.11,0,.16,0,.23.09.38.43,1.61,1.94,1.95,2.35a.13.13,0,0,1,0,.2,44.12,44.12,0,0,0-6.8,6.69s0,0,0,0A77.57,77.57,0,0,1,42.8,32V28.34L31.66,19.5,20.5,28.34v3.95A78.55,78.55,0,0,1,35.58,26.13Z" fill="#fff"/><path d="M26.51,41.33a.18.18,0,0,1-.24,0l-2.08-2.48c-.06-.07-.06-.11,0-.22a39.83,39.83,0,0,1,7-7.6s0-.06,0,0A93.62,93.62,0,0,0,20.5,35.63v8.46H42.8V36A81.85,81.85,0,0,0,26.51,41.33Z" fill="#fff"/><path d="M138.5,26.6a.7.7,0,0,0-.72-.74H137V28h.34v-.63h.35l.38.63h.4l-.42-.68A.73.73,0,0,0,138.5,26.6Zm-.75.43h-.41v-.86h.41a.43.43,0,0,1,0,.86Z" fill="#fff"/><path d="M137.67,25.12A1.84,1.84,0,1,0,139.5,27,1.83,1.83,0,0,0,137.67,25.12Zm0,3.32A1.49,1.49,0,1,1,139.15,27,1.49,1.49,0,0,1,137.67,28.44Z" fill="#fff"/></g></g></g></svg>