<svg xmlns="http://www.w3.org/2000/svg" viewBox="0 0 160 600"><title>cta</title><g id="Layer_2" data-name="Layer 2"><g id="Layer_14_copy_4" data-name="Layer 14 copy 4"><path d="M-580,118.32h-83a2.54,2.54,0,0,0-2.63,2.43v29.14a2.54,2.54,0,0,0,2.63,2.43h104.74a2.54,2.54,0,0,0,2.63-2.43V120.75a2.54,2.54,0,0,0-2.63-2.43Z" transform="translate(690 240)" fill="none" stroke="#fff" stroke-miterlimit="10" stroke-width="1.21"/><path d="M-645.16,130.53h1.61v8.29h3.93v1.52h-5.54Z" transform="translate(690 240)" fill="#fff"/><path d="M-632.49,137.58h-4.85a1.6,1.6,0,0,0,1.82,1.59,1.42,1.42,0,0,0,1.46-.74h1.54a2.8,2.8,0,0,1-3,2.07,3.13,3.13,0,0,1-3.33-3.43,3.15,3.15,0,0,1,3.28-3.43,3,3,0,0,1,3.12,3.1C-632.45,137-632.46,137.21-632.49,137.58Zm-1.46-1.17a1.46,1.46,0,0,0-1.65-1.56,1.57,1.57,0,0,0-1.74,1.56Z" transform="translate(690 240)" fill="#fff"/><path d="M-631.47,137.07a3.19,3.19,0,0,1,3.25-3.43,2.38,2.38,0,0,1,2.06,1.05v-.88h1.51v6.53h-1.51v-.89a2.56,2.56,0,0,1-2.1,1.05A3.11,3.11,0,0,1-631.47,137.07Zm5.36,0A1.88,1.88,0,0,0-628,135a1.89,1.89,0,0,0-1.91,2.07,1.9,1.9,0,0,0,1.91,2.08A1.89,1.89,0,0,0-626.11,137.07Z" transform="translate(690 240)" fill="#fff"/><path d="M-622.69,133.81h1.52v1.26a1.77,1.77,0,0,1,1.74-1.35,2.58,2.58,0,0,1,.6.06v1.4a4,4,0,0,0-.6,0c-1.08,0-1.74.82-1.74,2.3v2.89h-1.52Z" transform="translate(690 240)" fill="#fff"/><path d="M-617.57,133.81H-616v.91a2.31,2.31,0,0,1,2.13-1.08c1.57,0,2.38.88,2.38,2.59v4.11h-1.53v-3.41c0-1.38-.36-2-1.43-2s-1.55.66-1.55,1.81v3.59h-1.53Z" transform="translate(690 240)" fill="#fff"/><path d="M-606.15,133.81h1.53v.91a2,2,0,0,1,1.82-1.08,2,2,0,0,1,2.06,1.16,2.19,2.19,0,0,1,2-1.16c2,0,2.36,1.35,2.36,2.56v4.14h-1.53V136.5c0-1.08-.42-1.56-1.22-1.56s-1.37.38-1.37,1.94v3.46H-602v-3.86c0-1.07-.39-1.54-1.19-1.54s-1.4.38-1.4,1.94v3.46h-1.53Z" transform="translate(690 240)" fill="#fff"/><path d="M-595,137.07a3.27,3.27,0,0,1,3.45-3.43,3.27,3.27,0,0,1,3.44,3.43,3.27,3.27,0,0,1-3.44,3.43A3.27,3.27,0,0,1-595,137.07Zm5.37,0a1.87,1.87,0,0,0-1.92-2.07,1.87,1.87,0,0,0-1.92,2.07,1.88,1.88,0,0,0,1.92,2.08A1.88,1.88,0,0,0-589.62,137.07Z" transform="translate(690 240)" fill="#fff"/><path d="M-586.63,133.81h1.53v1.26a1.75,1.75,0,0,1,1.73-1.35,2.68,2.68,0,0,1,.61.06v1.4a4.16,4.16,0,0,0-.61,0c-1.08,0-1.73.82-1.73,2.3v2.89h-1.53Z" transform="translate(690 240)" fill="#fff"/><path d="M-575.85,137.58h-4.84a1.59,1.59,0,0,0,1.82,1.59,1.41,1.41,0,0,0,1.45-.74h1.54a2.78,2.78,0,0,1-3,2.07,3.14,3.14,0,0,1-3.34-3.43,3.15,3.15,0,0,1,3.28-3.43,3,3,0,0,1,3.13,3.1C-575.8,137-575.82,137.21-575.85,137.58Zm-1.45-1.17a1.47,1.47,0,0,0-1.66-1.56,1.55,1.55,0,0,0-1.73,1.56Z" transform="translate(690 240)" fill="#fff"/><rect width="160" height="600" fill="none"/></g></g></svg>