<svg xmlns="http://www.w3.org/2000/svg" viewBox="0 0 160 600"><title>txt1c</title><g id="Layer_2" data-name="Layer 2"><g id="Layer_4" data-name="Layer 4"><path d="M21.3,463.83H14.36v-3.27H27.47l-7.9,13.54H27v3.27H13.33Z" fill="#fff"/><path d="M29,462.56a2.21,2.21,0,0,1,2.25-2.26,2.25,2.25,0,1,1,0,4.49A2.2,2.2,0,0,1,29,462.56Zm.43,3.24h3.65v11.57H29.41Z" fill="#fff"/><path d="M36.1,460.56h3.68v16.81H36.1Z" fill="#fff"/><path d="M42.8,460.56h3.67v16.81H42.8Z" fill="#fff"/><path d="M48.58,471.58c0-3.53,2.45-6.1,6.44-6.1s6.4,2.57,6.4,6.1-2.44,6.1-6.4,6.1S48.58,475.11,48.58,471.58Zm9.2,0a2.77,2.77,0,1,0-2.76,3A2.72,2.72,0,0,0,57.78,471.58Z" fill="#fff"/><path d="M61.62,465.8h3.84l2.08,7,2-7h3.58l2,7,2.09-7H81l-4.15,11.57H73.52l-2.23-7-2.21,7H65.79Z" fill="#fff"/><path d="M81.22,475.25a2.38,2.38,0,1,1,2.38,2.36A2.35,2.35,0,0,1,81.22,475.25Z" fill="#fff"/><rect width="160" height="600" fill="none"/></g></g></svg>