<svg xmlns="http://www.w3.org/2000/svg" viewBox="0 0 160 600"><title>txt1b</title><g id="Layer_2" data-name="Layer 2"><g id="Layer_4_copy" data-name="Layer 4 copy"><path d="M27.2,445.71c0,2.88-2,4.66-5.37,4.66H14.65V433.56h6.91c3.34,0,5.4,1.66,5.4,4.37a3.63,3.63,0,0,1-3.21,3.84A3.72,3.72,0,0,1,27.2,445.71Zm-8.66-9.34v4.08H20.7c1.49,0,2.37-.77,2.37-2s-.86-2-2.37-2Zm4.75,8.84A2.09,2.09,0,0,0,21,443.14H18.54v4.27H21A2.09,2.09,0,0,0,23.29,445.21Z" fill="#fff"/><path d="M41.17,445.59H32.62c.08,1.51,1.08,2.33,2.72,2.33,1.12,0,1.84-.31,2.16-1h3.6c-.36,2.29-2.69,3.8-5.76,3.8-3.94,0-6.36-2.23-6.36-6.1s2.47-6.1,6.24-6.1c3.6,0,6,2.24,6,5.5A12.92,12.92,0,0,1,41.17,445.59Zm-3.53-2.28A2.17,2.17,0,0,0,35.19,441a2.32,2.32,0,0,0-2.57,2.35Z" fill="#fff"/><path d="M42.58,446.88h3.65c0,.8.77,1.35,1.9,1.35.79,0,1.34-.39,1.34-1.06s-.26-.84-1.25-1.08l-2.42-.6a3.36,3.36,0,0,1-2.9-3.38c0-2.19,2-3.63,4.94-3.63,3.26,0,5.16,1.28,5.16,3.58H49.38c0-.82-.6-1.25-1.59-1.25-.79,0-1.32.39-1.32.94s.34.86,1.27,1.1l2.45.67c1.83.48,2.93,1.59,2.93,3.34,0,2.4-2,3.82-5.06,3.82C44.77,450.68,42.58,449.14,42.58,446.88Z" fill="#fff"/><path d="M62.58,447.44v2.93a15.14,15.14,0,0,1-2.45.19c-1.73,0-4.11-.39-4.11-4.25V441.7H54.2v-2.9H56v-3.44H59.7v3.44h2.61v2.9H59.7v3.84c0,1.71.69,2,1.6,2A12.51,12.51,0,0,0,62.58,447.44Z" fill="#fff"/><path d="M69.61,444.58c0-3.53,2.45-6.1,6.43-6.1s6.41,2.57,6.41,6.1-2.45,6.1-6.41,6.1S69.61,448.11,69.61,444.58Zm9.19,0a2.77,2.77,0,1,0-2.76,3A2.71,2.71,0,0,0,78.8,444.58Z" fill="#fff"/><path d="M89,437.62v1.18h2.69v2.9H89v8.67H85.33V441.7H83.26v-2.9h2.07v-1.13a3.93,3.93,0,0,1,4.25-4.32,7.25,7.25,0,0,1,2.11.26v2.62c-.38,0-.67-.07-1-.07C89.89,436.16,89,436.35,89,437.62Z" fill="#fff"/><rect width="160" height="600" fill="none"/></g></g></svg>