<svg xmlns="http://www.w3.org/2000/svg" viewBox="0 0 160 600"><title>txt1a</title><g id="Layer_2" data-name="Layer 2"><g id="Layer_4_copy_2" data-name="Layer 4 copy 2"><path d="M14.65,406.56h3.89v16.81H14.65Z" fill="#fff"/><path d="M21.68,411.8h3.67v1.68a3.93,3.93,0,0,1,3.75-2c2.81,0,4.22,1.59,4.22,4.73v7.16h-3.7v-6c0-1.94-.55-2.83-2-2.83s-2.23,1-2.23,2.74v6.05H21.68Z" fill="#fff"/><path d="M43.38,420.44v2.93a15,15,0,0,1-2.45.19c-1.73,0-4.1-.39-4.1-4.25V414.7H35v-2.9h1.83v-3.44H40.5v3.44h2.61v2.9H40.5v3.84c0,1.71.69,2,1.61,2A12.46,12.46,0,0,0,43.38,420.44Z" fill="#fff"/><path d="M45.49,411.8h3.67v2.42a3.24,3.24,0,0,1,3.19-2.62,3.57,3.57,0,0,1,1,.1v3.41a7.82,7.82,0,0,0-1.1-.07c-2,0-3.05,1.29-3.05,3.86v4.47H45.49Z" fill="#fff"/><path d="M54.3,417.58c0-3.53,2.44-6.1,6.43-6.1s6.41,2.57,6.41,6.1-2.45,6.1-6.41,6.1S54.3,421.11,54.3,417.58Zm9.19,0a2.77,2.77,0,1,0-2.76,3A2.71,2.71,0,0,0,63.49,417.58Z" fill="#fff"/><path d="M81.37,406.56v16.81H77.72v-1.64a4.15,4.15,0,0,1-3.67,1.95c-3.46,0-5.45-2.62-5.45-6.1s2.14-6.1,5.5-6.1a4,4,0,0,1,3.62,2v-6.89Zm-3.51,11a2.77,2.77,0,1,0-5.52,0,2.77,2.77,0,0,0,2.76,3.05C76.93,420.63,77.86,419.26,77.86,417.58Z" fill="#fff"/><path d="M84.3,419V411.8H88v6.33c0,1.59.52,2.45,1.92,2.45,1.56,0,2.23-1,2.23-2.57V411.8h3.65v11.57H92.17v-1.66a3.8,3.8,0,0,1-3.6,2C85.78,423.68,84.3,422,84.3,419Z" fill="#fff"/><path d="M98,417.58c0-3.65,2.38-6.1,6.19-6.1,3.46,0,5.72,1.83,6,4.71h-3.67c-.26-1.08-1-1.59-2.3-1.59-1.59,0-2.55,1.06-2.55,3s1,3,2.55,3c1.34,0,2-.48,2.3-1.49h3.67c-.28,2.81-2.54,4.61-6,4.61C100.33,423.68,98,421.23,98,417.58Z" fill="#fff"/><path d="M111.82,408.56a2.27,2.27,0,1,1,2.26,2.23A2.21,2.21,0,0,1,111.82,408.56Zm.43,3.24h3.65v11.57h-3.65Z" fill="#fff"/><path d="M119,411.8h3.67v1.68a4,4,0,0,1,3.75-2c2.81,0,4.22,1.59,4.22,4.73v7.16H126.9v-6c0-1.94-.56-2.83-2-2.83s-2.24,1-2.24,2.74v6.05H119Z" fill="#fff"/><path d="M145.47,411.8v10.82a5.64,5.64,0,0,1-2.23,4.87,7.05,7.05,0,0,1-4.13,1,8,8,0,0,1-4.17-.94,4.18,4.18,0,0,1-2.07-3.22h3.75c.16.92,1,1.47,2.44,1.47,1.71,0,2.74-.75,2.74-2.81v-1.54a4.07,4.07,0,0,1-3.62,1.88c-3.44,0-5.5-2.5-5.5-5.91s2.21-6,5.54-6a3.9,3.9,0,0,1,3.58,2V411.8Zm-3.5,5.71a2.77,2.77,0,1,0-5.52,0,2.77,2.77,0,1,0,5.52,0Z" fill="#fff"/><rect width="160" height="600" fill="none"/></g></g></svg>