<svg xmlns="http://www.w3.org/2000/svg" viewBox="0 0 160 600"><title>txt2a</title><g id="Layer_2" data-name="Layer 2"><g id="Layer_7_copy" data-name="Layer 7 copy"><path d="M17.75,410H13.14v-3.46h13.1V410H21.61v13.35H17.75Z" fill="#fff"/><path d="M25.45,417.58c0-3.53,2.45-6.1,6.43-6.1s6.41,2.57,6.41,6.1-2.45,6.1-6.41,6.1S25.45,421.11,25.45,417.58Zm9.19,0a2.77,2.77,0,1,0-2.76,3A2.71,2.71,0,0,0,34.64,417.58Z" fill="#fff"/><path d="M53.17,417.58c0,3.63-2.23,6.1-5.42,6.1a4.21,4.21,0,0,1-3.7-1.95v6.44H40.4V411.8h3.65v1.65a4.34,4.34,0,0,1,3.79-2C51,411.48,53.17,413.93,53.17,417.58Zm-3.74,0a2.77,2.77,0,1,0-2.74,3.05A2.77,2.77,0,0,0,49.43,417.58Z" fill="#fff"/><path d="M54.94,415.25h7.61v2.93H54.94Z" fill="#fff"/><path d="M65.14,411.8h3.68v2.42A3.24,3.24,0,0,1,72,411.6a3.67,3.67,0,0,1,1,.1v3.41a7.92,7.92,0,0,0-1.1-.07c-2,0-3.05,1.29-3.05,3.86v4.47H65.14Z" fill="#fff"/><path d="M73.78,417.58c0-3.46,2.14-6.1,5.5-6.1a4,4,0,0,1,3.63,2V411.8h3.64v11.57H82.91v-1.64a4.18,4.18,0,0,1-3.68,1.95C75.78,423.68,73.78,421.06,73.78,417.58Zm9.27,0a2.77,2.77,0,1,0-5.52,0,2.77,2.77,0,1,0,5.52,0Z" fill="#fff"/><path d="M97,420.44v2.93a15.14,15.14,0,0,1-2.45.19c-1.73,0-4.11-.39-4.11-4.25V414.7H88.57v-2.9h1.82v-3.44h3.68v3.44h2.61v2.9H94.07v3.84c0,1.71.69,2,1.6,2A12.51,12.51,0,0,0,97,420.44Z" fill="#fff"/><path d="M110.34,418.59h-8.55c.07,1.51,1.08,2.33,2.71,2.33,1.13,0,1.85-.31,2.17-1h3.59c-.35,2.29-2.68,3.8-5.76,3.8-3.93,0-6.36-2.23-6.36-6.1s2.48-6.1,6.24-6.1c3.6,0,6.05,2.24,6.05,5.5A12.92,12.92,0,0,1,110.34,418.59Zm-3.53-2.28a2.17,2.17,0,0,0-2.45-2.35,2.32,2.32,0,0,0-2.57,2.35Z" fill="#fff"/><path d="M124.67,406.56v16.81H121v-1.64a4.18,4.18,0,0,1-3.68,1.95c-3.45,0-5.44-2.62-5.44-6.1s2.13-6.1,5.49-6.1a4,4,0,0,1,3.63,2v-6.89Zm-3.51,11a2.77,2.77,0,1,0-5.52,0,2.77,2.77,0,0,0,2.76,3.05A2.74,2.74,0,0,0,121.16,417.58Z" fill="#fff"/><rect width="160" height="600" fill="none"/></g></g></svg>