<svg xmlns="http://www.w3.org/2000/svg" viewBox="0 0 160 600"><title>txt2b</title><g id="Layer_2" data-name="Layer 2"><g id="Layer_7" data-name="Layer 7"><path d="M13.69,444.58c0-3.46,2.14-6.1,5.5-6.1a4,4,0,0,1,3.62,2V438.8h3.65v11.57H22.81v-1.64a4.15,4.15,0,0,1-3.67,1.95C15.68,450.68,13.69,448.06,13.69,444.58Zm9.26,0a2.77,2.77,0,1,0-5.52,0,2.77,2.77,0,0,0,2.76,3.05C22,447.63,23,446.26,23,444.58Z" fill="#fff"/><path d="M41.46,438.8v10.82a5.69,5.69,0,0,1-2.23,4.87,7.07,7.07,0,0,1-4.13,1,8.06,8.06,0,0,1-4.18-.94,4.14,4.14,0,0,1-2.06-3.22H32.6c.17.92,1,1.47,2.45,1.47,1.7,0,2.74-.75,2.74-2.81v-1.54a4.09,4.09,0,0,1-3.63,1.88c-3.43,0-5.5-2.5-5.5-5.91s2.21-6,5.55-6a3.91,3.91,0,0,1,3.58,2V438.8ZM38,444.51a2.77,2.77,0,1,0-2.78,3A2.78,2.78,0,0,0,38,444.51Z" fill="#fff"/><path d="M55.76,445.59H47.22c.07,1.51,1.08,2.33,2.71,2.33,1.13,0,1.85-.31,2.16-1h3.6c-.36,2.29-2.69,3.8-5.76,3.8-3.94,0-6.36-2.23-6.36-6.1s2.47-6.1,6.24-6.1c3.6,0,6,2.24,6,5.5A13,13,0,0,1,55.76,445.59Zm-3.53-2.28A2.17,2.17,0,0,0,49.78,441a2.31,2.31,0,0,0-2.56,2.35Z" fill="#fff"/><path d="M58,438.8h3.67v1.68a3.92,3.92,0,0,1,3.74-2c2.81,0,4.23,1.59,4.23,4.73v7.16h-3.7v-6c0-1.94-.55-2.83-2-2.83s-2.23,1-2.23,2.74v6.05H58Z" fill="#fff"/><path d="M79.67,447.44v2.93a15.14,15.14,0,0,1-2.45.19c-1.73,0-4.11-.39-4.11-4.25V441.7H71.29v-2.9h1.82v-3.44h3.68v3.44H79.4v2.9H76.79v3.84c0,1.71.69,2,1.6,2A12.51,12.51,0,0,0,79.67,447.44Z" fill="#fff"/><path d="M80.86,446.88h3.65c0,.8.77,1.35,1.9,1.35.79,0,1.34-.39,1.34-1.06s-.26-.84-1.25-1.08l-2.42-.6a3.36,3.36,0,0,1-2.9-3.38c0-2.19,2-3.63,4.94-3.63,3.26,0,5.16,1.28,5.16,3.58H87.66c0-.82-.6-1.25-1.59-1.25-.79,0-1.32.39-1.32.94s.34.86,1.27,1.1l2.45.67c1.83.48,2.93,1.59,2.93,3.34,0,2.4-2,3.82-5.06,3.82C83.05,450.68,80.86,449.14,80.86,446.88Z" fill="#fff"/><path d="M93.13,448.25a2.38,2.38,0,1,1,2.37,2.36A2.35,2.35,0,0,1,93.13,448.25Z" fill="#fff"/><rect width="160" height="600" fill="none"/></g></g></svg>