<svg xmlns="http://www.w3.org/2000/svg" viewBox="0 0 160 600"><title>txt3a</title><g id="Layer_2" data-name="Layer 2"><g id="Layer_9_copy" data-name="Layer 9 copy"><path d="M24.68,418l2.95,5.33H23.22l-2.64-4.66h-2v4.66H14.65V406.56H21.8A6.13,6.13,0,0,1,24.68,418Zm-6.14-2.5H21.2a2.91,2.91,0,0,0,0-5.81H18.54Z" fill="#fff"/><path d="M29.05,417.58c0-3.46,2.14-6.1,5.5-6.1a4,4,0,0,1,3.62,2V411.8h3.65v11.57H38.17v-1.64a4.15,4.15,0,0,1-3.67,1.95C31,423.68,29.05,421.06,29.05,417.58Zm9.26,0a2.77,2.77,0,1,0-5.52,0,2.77,2.77,0,0,0,2.76,3.05C37.38,420.63,38.31,419.26,38.31,417.58Z" fill="#fff"/><path d="M44.86,411.8h3.68v1.68a3.92,3.92,0,0,1,3.74-2c2.81,0,4.23,1.59,4.23,4.73v7.16h-3.7v-6c0-1.94-.55-2.83-2-2.83s-2.23,1-2.23,2.74v6.05H44.86Z" fill="#fff"/><path d="M66.78,423.37l-3.7-5.05v5.05H59.43V406.56h3.65v10.11l3.79-4.87h4.32l-4.61,5.47,4.68,6.1Z" fill="#fff"/><path d="M83.22,418.59H74.67c.07,1.51,1.08,2.33,2.71,2.33,1.13,0,1.85-.31,2.16-1h3.6c-.35,2.29-2.68,3.8-5.76,3.8-3.93,0-6.36-2.23-6.36-6.1s2.48-6.1,6.24-6.1c3.6,0,6,2.24,6,5.5A12.92,12.92,0,0,1,83.22,418.59Zm-3.53-2.28A2.17,2.17,0,0,0,77.24,414a2.32,2.32,0,0,0-2.57,2.35Z" fill="#fff"/><path d="M97.55,406.56v16.81H93.9v-1.64a4.18,4.18,0,0,1-3.68,1.95c-3.45,0-5.44-2.62-5.44-6.1s2.13-6.1,5.49-6.1a4,4,0,0,1,3.63,2v-6.89Zm-3.51,11a2.77,2.77,0,1,0-5.52,0,2.77,2.77,0,0,0,2.76,3.05C93.11,420.63,94,419.26,94,417.58Z" fill="#fff"/><rect width="160" height="600" fill="none"/></g></g></svg>