<svg xmlns="http://www.w3.org/2000/svg" viewBox="0 0 160 600"><title>txt3b</title><g id="Layer_2" data-name="Layer 2"><g id="Layer_9" data-name="Layer 9"><path d="M27.3,444.58c0,3.63-2.23,6.1-5.43,6.1a4.2,4.2,0,0,1-3.69-1.95v1.64H14.53V433.56h3.65v6.89a4.34,4.34,0,0,1,3.79-2C25.14,438.48,27.3,440.93,27.3,444.58Zm-3.75,0a2.77,2.77,0,1,0-5.52,0,2.77,2.77,0,1,0,5.52,0Z" fill="#fff"/><path d="M41,438.8V450a5.45,5.45,0,0,1-1.66,4.18,6,6,0,0,1-4.24,1.35,6.47,6.47,0,0,1-4.28-1.2,4.13,4.13,0,0,1-1.44-3.05h3.7c.07,1,.63,1.56,2,1.56s2.23-.8,2.23-2.59v-1.8a3.88,3.88,0,0,1-3.67,1.92c-3,0-4.28-2-4.28-4.85V438.8h3.68V445c0,1.49.5,2.5,2,2.5s2.23-1.15,2.23-2.93V438.8Z" fill="#fff"/><path d="M61.35,438.8V450a5.48,5.48,0,0,1-1.65,4.18,6.05,6.05,0,0,1-4.25,1.35,6.44,6.44,0,0,1-4.27-1.2,4.1,4.1,0,0,1-1.44-3.05h3.69c.07,1,.63,1.56,2,1.56s2.23-.8,2.23-2.59v-1.8A3.88,3.88,0,0,1,54,450.37c-2.95,0-4.27-2-4.27-4.85V438.8h3.67V445c0,1.49.5,2.5,2,2.5s2.23-1.15,2.23-2.93V438.8Z" fill="#fff"/><path d="M63.46,444.58c0-3.53,2.45-6.1,6.44-6.1s6.41,2.57,6.41,6.1-2.45,6.1-6.41,6.1S63.46,448.11,63.46,444.58Zm9.2,0a2.77,2.77,0,1,0-2.76,3A2.72,2.72,0,0,0,72.66,444.58Z" fill="#fff"/><path d="M78.3,446V438.8H82v6.33c0,1.59.52,2.45,1.92,2.45,1.56,0,2.23-1,2.23-2.57V438.8h3.65v11.57H86.17v-1.66a3.8,3.8,0,0,1-3.6,2C79.78,450.68,78.3,449,78.3,446Z" fill="#fff"/><path d="M92.72,448.25a2.38,2.38,0,1,1,2.38,2.36A2.35,2.35,0,0,1,92.72,448.25Z" fill="#fff"/><rect width="160" height="600" fill="none"/></g></g></svg>