<svg xmlns="http://www.w3.org/2000/svg" viewBox="0 0 160 600"><title>txt4a</title><g id="Layer_2" data-name="Layer 2"><g id="Layer_11_copy_2" data-name="Layer 11 copy 2"><path d="M14.65,406.56H24.92v3.27H18.54v4.53h6.38v3.2H18.54v5.81H14.65Z" fill="#fff"/><path d="M26.65,417.58c0-3.53,2.45-6.1,6.43-6.1s6.41,2.57,6.41,6.1-2.45,6.1-6.41,6.1S26.65,421.11,26.65,417.58Zm9.19,0a2.77,2.77,0,1,0-2.76,3A2.71,2.71,0,0,0,35.84,417.58Z" fill="#fff"/><path d="M41.6,411.8h3.67v2.42a3.24,3.24,0,0,1,3.19-2.62,3.57,3.57,0,0,1,1,.1v3.41a7.82,7.82,0,0,0-1.1-.07c-2,0-3,1.29-3,3.86v4.47H41.6Z" fill="#fff"/><rect width="160" height="600" fill="none"/></g></g></svg>