<svg xmlns="http://www.w3.org/2000/svg" viewBox="0 0 160 600"><title>txt4c</title><g id="Layer_2" data-name="Layer 2"><g id="Layer_11" data-name="Layer 11"><path d="M13.69,473.88h3.65c0,.8.77,1.35,1.89,1.35.8,0,1.35-.39,1.35-1.06s-.27-.84-1.25-1.08l-2.42-.6A3.37,3.37,0,0,1,14,469.11c0-2.19,2-3.63,4.95-3.63,3.26,0,5.16,1.28,5.16,3.58H20.48c0-.82-.6-1.25-1.58-1.25-.79,0-1.32.39-1.32.94s.33.86,1.27,1.1l2.45.67c1.82.48,2.93,1.59,2.93,3.34,0,2.4-2,3.82-5.07,3.82C15.87,477.68,13.69,476.14,13.69,473.88Z" fill="#fff"/><path d="M37.86,472.59H29.31c.07,1.51,1.08,2.33,2.72,2.33,1.12,0,1.84-.31,2.16-1h3.6c-.36,2.29-2.69,3.8-5.76,3.8-3.94,0-6.37-2.23-6.37-6.1s2.48-6.1,6.25-6.1c3.59,0,6,2.24,6,5.5A12.92,12.92,0,0,1,37.86,472.59Zm-3.53-2.28A2.17,2.17,0,0,0,31.88,468a2.32,2.32,0,0,0-2.57,2.35Z" fill="#fff"/><path d="M40.06,465.8h3.68v2.42a3.23,3.23,0,0,1,3.19-2.62,3.67,3.67,0,0,1,1,.1v3.41a8,8,0,0,0-1.11-.07c-2,0-3,1.29-3,3.86v4.47H40.06Z" fill="#fff"/><path d="M48.82,465.8h4.06l2.59,7.27,2.59-7.27h4.08l-5,11.57H53.82Z" fill="#fff"/><path d="M63.15,462.56a2.27,2.27,0,1,1,2.26,2.23A2.21,2.21,0,0,1,63.15,462.56Zm.43,3.24h3.65v11.57H63.58Z" fill="#fff"/><path d="M69.37,471.58c0-3.65,2.37-6.1,6.19-6.1,3.46,0,5.71,1.83,6,4.71H77.89c-.27-1.08-1-1.59-2.31-1.59-1.58,0-2.54,1.06-2.54,3s1,3,2.54,3c1.35,0,2-.48,2.31-1.49h3.67c-.29,2.81-2.54,4.61-6,4.61C71.74,477.68,69.37,475.23,69.37,471.58Z" fill="#fff"/><path d="M95.36,472.59H86.82c.07,1.51,1.08,2.33,2.71,2.33,1.13,0,1.85-.31,2.16-1h3.6c-.36,2.29-2.69,3.8-5.76,3.8-3.94,0-6.36-2.23-6.36-6.1s2.47-6.1,6.24-6.1c3.6,0,6,2.24,6,5.5A13,13,0,0,1,95.36,472.59Zm-3.53-2.28A2.17,2.17,0,0,0,89.38,468a2.31,2.31,0,0,0-2.56,2.35Z" fill="#fff"/><path d="M97.11,475.25a2.38,2.38,0,1,1,2.38,2.36A2.35,2.35,0,0,1,97.11,475.25Z" fill="#fff"/><rect width="160" height="600" fill="none"/></g></g></svg>