<svg xmlns="http://www.w3.org/2000/svg" viewBox="0 0 160 600"><title>txt4b</title><g id="Layer_2" data-name="Layer 2"><g id="Layer_11_copy" data-name="Layer 11 copy"><path d="M25.81,445.59H17.26c.08,1.51,1.08,2.33,2.72,2.33,1.13,0,1.85-.31,2.16-1h3.6c-.36,2.29-2.69,3.8-5.76,3.8-3.94,0-6.36-2.23-6.36-6.1s2.47-6.1,6.24-6.1c3.6,0,6.05,2.24,6.05,5.5A13,13,0,0,1,25.81,445.59Zm-3.53-2.28A2.17,2.17,0,0,0,19.83,441a2.32,2.32,0,0,0-2.57,2.35Z" fill="#fff"/><path d="M30.51,444.53l-4.13-5.73h4.37l2,3.36,2-3.36h4.39L35,444.53l4.2,5.84h-4.4l-2.06-3.46-2.09,3.46H26.31Z" fill="#fff"/><path d="M39.63,444.58c0-3.65,2.38-6.1,6.2-6.1,3.45,0,5.71,1.83,6,4.71H48.15c-.26-1.08-1-1.59-2.3-1.59-1.58,0-2.54,1.06-2.54,3s1,3,2.54,3c1.34,0,2-.48,2.3-1.49h3.68c-.29,2.81-2.55,4.61-6,4.61C42,450.68,39.63,448.23,39.63,444.58Z" fill="#fff"/><path d="M65.63,445.59H57.08c.07,1.51,1.08,2.33,2.71,2.33,1.13,0,1.85-.31,2.16-1h3.6c-.36,2.29-2.68,3.8-5.76,3.8-3.93,0-6.36-2.23-6.36-6.1s2.48-6.1,6.24-6.1c3.6,0,6,2.24,6,5.5A12.92,12.92,0,0,1,65.63,445.59Zm-3.53-2.28A2.18,2.18,0,0,0,59.65,441a2.32,2.32,0,0,0-2.57,2.35Z" fill="#fff"/><path d="M80.6,444.58c0,3.63-2.23,6.1-5.42,6.1a4.21,4.21,0,0,1-3.7-1.95v6.44H67.83V438.8h3.65v1.65a4.37,4.37,0,0,1,3.79-2C78.44,438.48,80.6,440.93,80.6,444.58Zm-3.74,0a2.77,2.77,0,1,0-2.74,3.05A2.77,2.77,0,0,0,76.86,444.58Z" fill="#fff"/><path d="M90.11,447.44v2.93a15.14,15.14,0,0,1-2.45.19c-1.73,0-4.11-.39-4.11-4.25V441.7H81.73v-2.9h1.82v-3.44h3.68v3.44h2.61v2.9H87.23v3.84c0,1.71.69,2,1.6,2A12.51,12.51,0,0,0,90.11,447.44Z" fill="#fff"/><path d="M91.78,435.56A2.27,2.27,0,1,1,94,437.79,2.21,2.21,0,0,1,91.78,435.56Zm.44,3.24h3.64v11.57H92.22Z" fill="#fff"/><path d="M98,444.58c0-3.53,2.45-6.1,6.43-6.1s6.41,2.57,6.41,6.1-2.45,6.1-6.41,6.1S98,448.11,98,444.58Zm9.19,0a2.77,2.77,0,1,0-2.76,3A2.71,2.71,0,0,0,107.19,444.58Z" fill="#fff"/><path d="M113,438.8h3.67v1.68a4,4,0,0,1,3.75-2c2.81,0,4.22,1.59,4.22,4.73v7.16H120.9v-6c0-1.94-.56-2.83-2-2.83s-2.24,1-2.24,2.74v6.05H113Z" fill="#fff"/><path d="M126.68,444.58c0-3.46,2.14-6.1,5.5-6.1a4,4,0,0,1,3.62,2V438.8h3.65v11.57H135.8v-1.64a4.15,4.15,0,0,1-3.67,1.95C128.67,450.68,126.68,448.06,126.68,444.58Zm9.26,0a2.77,2.77,0,1,0-5.52,0,2.77,2.77,0,0,0,2.76,3.05C135,447.63,135.94,446.26,135.94,444.58Z" fill="#fff"/><path d="M142.5,433.56h3.67v16.81H142.5Z" fill="#fff"/><rect width="160" height="600" fill="none"/></g></g></svg>