<svg xmlns="http://www.w3.org/2000/svg" viewBox="0 0 160 600"><title>txt5a</title><g id="Layer_2" data-name="Layer 2"><g id="Layer_14_copy_3" data-name="Layer 14 copy 3"><path d="M63.66,219.27h5.45a5.64,5.64,0,0,1,2.2.36,3.58,3.58,0,0,1,1.29.91,2.71,2.71,0,0,1,.62,1.15,4.49,4.49,0,0,1,.17,1.13,2.87,2.87,0,0,1-.21,1.12,3,3,0,0,1-.55.87,2.88,2.88,0,0,1-.74.62,3.57,3.57,0,0,1-.8.33,1.72,1.72,0,0,1,.73.19,2.77,2.77,0,0,1,.79.57,2.93,2.93,0,0,1,.63.93,3.11,3.11,0,0,1,.26,1.3,4.63,4.63,0,0,1-.17,1.14,3.16,3.16,0,0,1-.64,1.21,3.68,3.68,0,0,1-1.32,1,5.47,5.47,0,0,1-2.2.38H63.66Zm4.85,5.36a2.39,2.39,0,0,0,.92-.15,1.52,1.52,0,0,0,.55-.39,1.26,1.26,0,0,0,.28-.52,2.06,2.06,0,0,0,.08-.52,1.76,1.76,0,0,0-.07-.49,1.2,1.2,0,0,0-.26-.5,1.52,1.52,0,0,0-.56-.4,2.45,2.45,0,0,0-.94-.16H66.69v3.13Zm-1.82,2.24v3.23h1.9a2.34,2.34,0,0,0,.91-.15,1.56,1.56,0,0,0,.56-.39,1.28,1.28,0,0,0,.28-.51,2.22,2.22,0,0,0,.07-.57,2,2,0,0,0-.07-.51,1.33,1.33,0,0,0-.28-.52,1.63,1.63,0,0,0-.55-.42,2.16,2.16,0,0,0-.9-.16Z" fill="#fff"/><path d="M91.44,228.07a2.34,2.34,0,0,0,.58,1.67,2,2,0,0,0,1.53.61,1.84,1.84,0,0,0,1.23-.43,1.39,1.39,0,0,0,.5-1.12,1.24,1.24,0,0,0-.16-.66,1.52,1.52,0,0,0-.43-.48,3.35,3.35,0,0,0-.65-.37l-.81-.33c-.6-.23-1.18-.45-1.72-.68a5.57,5.57,0,0,1-1.42-.82,3.67,3.67,0,0,1-1-1.15,3.54,3.54,0,0,1-.36-1.68,3.24,3.24,0,0,1,.39-1.6,3.44,3.44,0,0,1,1-1.16,4.52,4.52,0,0,1,1.48-.71,6.7,6.7,0,0,1,1.74-.23,5.61,5.61,0,0,1,2,.34,4,4,0,0,1,1.47.92,3.88,3.88,0,0,1,.87,1.33,4.5,4.5,0,0,1,.29,1.6H95a2.12,2.12,0,0,0-.42-1.39,1.49,1.49,0,0,0-1.21-.51,1.85,1.85,0,0,0-1.13.34,1.18,1.18,0,0,0-.47,1,1.22,1.22,0,0,0,.52,1,5.06,5.06,0,0,0,1.36.69c.54.19,1.08.39,1.64.61a6.77,6.77,0,0,1,1.48.81,4.11,4.11,0,0,1,1.08,1.16,3.07,3.07,0,0,1,.43,1.67,4.11,4.11,0,0,1-.37,1.8,3.73,3.73,0,0,1-1,1.33,4.41,4.41,0,0,1-1.57.81,6.89,6.89,0,0,1-2,.27,6,6,0,0,1-2-.31,4.67,4.67,0,0,1-1.58-.91,4.17,4.17,0,0,1-1-1.48,5,5,0,0,1-.38-2Z" fill="#fff"/><path d="M125.58,232.77a7.19,7.19,0,0,1-2.93-.57,6.72,6.72,0,0,1-2.2-1.53,6.54,6.54,0,0,1-1.38-2.22,7.39,7.39,0,0,1-.47-2.6,7.48,7.48,0,0,1,.47-2.61,6.57,6.57,0,0,1,3.58-3.74,7.82,7.82,0,0,1,5.86,0A6.64,6.64,0,0,1,130.7,221a6.57,6.57,0,0,1,1.37,2.21,7.26,7.26,0,0,1,.47,2.61,7.17,7.17,0,0,1-.47,2.6,6.51,6.51,0,0,1-1.37,2.22,6.79,6.79,0,0,1-2.19,1.53A7.19,7.19,0,0,1,125.58,232.77Zm0-2.74a3.7,3.7,0,0,0,1.62-.35,3.6,3.6,0,0,0,1.21-.93,4.15,4.15,0,0,0,.77-1.34,4.81,4.81,0,0,0,0-3.12,4.15,4.15,0,0,0-.77-1.34,3.6,3.6,0,0,0-1.21-.93,3.73,3.73,0,0,0-4.45.93,4.13,4.13,0,0,0-.76,1.34,4.81,4.81,0,0,0,0,3.12,4.13,4.13,0,0,0,.76,1.34,3.63,3.63,0,0,0,2.83,1.28Z" fill="#fff"/><path d="M139,221.82v3.56h4.52v2.5H139v4.55h-3V219.27h8.51v2.55Z" fill="#fff"/><path d="M79.68,221.71v3h4.86v2.39H79.68V230H84.9v2.44H76.7V219.27h8.2v2.44Z" fill="#fff"/><path d="M103.88,221.9h-3.26v-2.63h9.51v2.63h-3.28v10.53h-3Z" fill="#fff"/><rect width="160" height="600" fill="none"/></g></g></svg>