<svg xmlns="http://www.w3.org/2000/svg" viewBox="0 0 160 600"><title>txt5b</title><g id="Layer_2" data-name="Layer 2"><g id="Layer_14_copy_2" data-name="Layer 14 copy 2"><path d="M64.61,241.44v2.8H70s0,0,0,0l-5.45,9.26a.84.84,0,0,0-.16.53v.55H75v-2.8H69.14s0,0,0,0l5.51-9.38a.71.71,0,0,0,.09-.38v-.58Z" fill="#fff"/><path d="M78.26,241.44h3.09v13.17H78.26Z" fill="#fff"/><path d="M103.2,252v2.64H95.73V241.44h3V252Z" fill="#fff"/><path d="M92.81,252v2.64H85.33V241.44h3V252Z" fill="#fff"/><path d="M111.8,254.94a7.19,7.19,0,0,1-2.93-.57,6.57,6.57,0,0,1-3.58-3.74,7.45,7.45,0,0,1,0-5.21,6.5,6.5,0,0,1,1.38-2.21,6.75,6.75,0,0,1,2.2-1.54,7.82,7.82,0,0,1,5.86,0,6.81,6.81,0,0,1,2.19,1.54,6.47,6.47,0,0,1,1.37,2.21,7.45,7.45,0,0,1,0,5.21,6.57,6.57,0,0,1-1.37,2.21,6.64,6.64,0,0,1-2.19,1.53A7.19,7.19,0,0,1,111.8,254.94Zm0-2.74a3.7,3.7,0,0,0,1.62-.35,3.6,3.6,0,0,0,1.21-.93,3.86,3.86,0,0,0,.76-1.34,4.64,4.64,0,0,0,0-3.12,3.81,3.81,0,0,0-.76-1.33,3.76,3.76,0,0,0-1.21-.94,4,4,0,0,0-3.24,0,3.87,3.87,0,0,0-1.21.94,4,4,0,0,0-.76,1.33,4.81,4.81,0,0,0,0,3.12,4,4,0,0,0,.76,1.34,3.63,3.63,0,0,0,2.83,1.28Z" fill="#fff"/><path d="M129.9,246.33l-2.62,8.28h-2.5l-4.64-13.17h3.21l2.69,8.63,2.67-8.63h2.35l2.69,8.63,2.68-8.63h3.21L135,254.61h-2.49Z" fill="#fff"/><rect width="160" height="600" fill="none"/></g></g></svg>