<svg xmlns="http://www.w3.org/2000/svg" viewBox="0 0 160 600"><title>txt6a</title><g id="Layer_2" data-name="Layer 2"><g id="Layer_14_copy" data-name="Layer 14 copy"><path d="M16.71,299.13h1.81L21,306.76l2.36-7.63h1.27L27,306.76l2.49-7.63H31.3l-3.63,10.5H26.43L24,302.14l-2.43,7.49H20.34Z" fill="#fff"/><path d="M30.85,306.13a3.51,3.51,0,0,1,3.69-3.67,3.68,3.68,0,1,1,0,7.35A3.51,3.51,0,0,1,30.85,306.13Zm5.75,0a2.06,2.06,0,1,0-2.06,2.22A2,2,0,0,0,36.6,306.13Z" fill="#fff"/><path d="M39.81,302.64h1.63V304a1.89,1.89,0,0,1,1.86-1.44,2.48,2.48,0,0,1,.65.06v1.5a4.72,4.72,0,0,0-.65,0c-1.15,0-1.86.87-1.86,2.46v3.09H39.81Z" fill="#fff"/><path d="M48.61,306l3,3.65H49.5l-2.58-3.2v3.2H45.3v-10.5h1.62v6.58l2.65-3.07h2.07Z" fill="#fff"/><path d="M55.84,302.64h1.8l1.46,4.62,1.51-4.62h1.77l1.52,4.62,1.45-4.62h1.8l-2.58,7H63.19l-1.69-5-1.7,5H58.42Z" fill="#fff"/><path d="M67.87,300.42a1.22,1.22,0,1,1,1.22,1.21A1.19,1.19,0,0,1,67.87,300.42Zm.41,2.22H69.9v7H68.28Z" fill="#fff"/><path d="M76,308.19v1.44a8.75,8.75,0,0,1-1.22.09c-.79,0-2.26-.11-2.26-2.46V304H71.32v-1.36h1.19v-2.12h1.63v2.12h1.61V304H74.14v2.88c0,1.22.38,1.37,1,1.37A6.31,6.31,0,0,0,76,308.19Z" fill="#fff"/><path d="M84,305.23v4.4H82.32V306c0-1.48-.39-2.13-1.53-2.13s-1.67.71-1.67,1.94v3.84H77.49v-10.5h1.63v4.48a2.49,2.49,0,0,1,2.28-1.15C83.08,302.46,84,303.4,84,305.23Z" fill="#fff"/><path d="M93.72,308.19v1.44a8.75,8.75,0,0,1-1.22.09c-.79,0-2.26-.11-2.26-2.46V304H89.05v-1.36h1.19v-2.12h1.63v2.12h1.61V304H91.87v2.88c0,1.22.38,1.37,1,1.37A6.31,6.31,0,0,0,93.72,308.19Z" fill="#fff"/><path d="M101.68,305.23v4.4h-1.63V306c0-1.48-.39-2.13-1.53-2.13s-1.67.71-1.67,1.94v3.84H95.22v-10.5h1.63v4.48a2.49,2.49,0,0,1,2.28-1.15C100.81,302.46,101.68,303.4,101.68,305.23Z" fill="#fff"/><path d="M110,306.67H104.8a1.71,1.71,0,0,0,2,1.71,1.53,1.53,0,0,0,1.56-.79H110a3,3,0,0,1-3.21,2.22,3.68,3.68,0,0,1-.06-7.35,3.17,3.17,0,0,1,3.35,3.31C110,306.06,110,306.28,110,306.67Zm-1.56-1.24a1.57,1.57,0,0,0-1.77-1.68,1.68,1.68,0,0,0-1.86,1.68Z" fill="#fff"/><path d="M122.67,306.13a3.41,3.41,0,0,1-3.44,3.68,2.71,2.71,0,0,1-2.25-1.13v.95h-1.62v-10.5H117v4.45a2.85,2.85,0,0,1,2.36-1.12C121.33,302.46,122.67,303.93,122.67,306.13Zm-1.64,0a2.06,2.06,0,1,0-2,2.22A2,2,0,0,0,121,306.13Z" fill="#fff"/><path d="M130.53,306.67h-5.19a1.71,1.71,0,0,0,2,1.71,1.53,1.53,0,0,0,1.56-.79h1.65a3,3,0,0,1-3.21,2.22,3.68,3.68,0,0,1-.06-7.35,3.16,3.16,0,0,1,3.34,3.31C130.57,306.06,130.56,306.28,130.53,306.67ZM129,305.43a1.58,1.58,0,0,0-1.77-1.68,1.67,1.67,0,0,0-1.86,1.68Z" fill="#fff"/><path d="M131.62,307.48h1.64c0,.6.58,1,1.42,1,.62,0,1-.33,1-.82s-.17-.63-.92-.83l-1.39-.37a1.93,1.93,0,0,1-1.53-2c0-1.18,1.12-2.05,2.68-2.05,1.71,0,2.76.82,2.76,2.17h-1.6c0-.58-.45-.93-1.22-.93-.58,0-1,.3-1,.72s.22.63.87.81l1.39.41a2,2,0,0,1,1.62,2c0,1.37-1.06,2.18-2.76,2.18S131.62,308.82,131.62,307.48Z" fill="#fff"/><path d="M142.84,308.19v1.44a8.46,8.46,0,0,1-1.21.09c-.8,0-2.27-.11-2.27-2.46V304h-1.18v-1.36h1.18v-2.12H141v2.12h1.6V304H141v2.88c0,1.22.37,1.37,1,1.37A6.14,6.14,0,0,0,142.84,308.19Z" fill="#fff"/><rect width="160" height="600" fill="none"/></g></g></svg>