<svg xmlns="http://www.w3.org/2000/svg" viewBox="0 0 160 600"><title>txt6b</title><g id="Layer_2" data-name="Layer 2"><g id="Layer_14" data-name="Layer 14"><path d="M42.33,325.13A3.69,3.69,0,1,1,46,328.81,3.51,3.51,0,0,1,42.33,325.13Zm5.74,0a2.06,2.06,0,1,0-2,2.22A2,2,0,0,0,48.07,325.13Z" fill="#fff"/><path d="M53.44,320.59v1.05h1.83V323H53.44v5.63H51.81V323H50.38v-1.36h1.43v-1A2.29,2.29,0,0,1,54.18,318a3.75,3.75,0,0,1,1.09.13v1.38c-.22,0-.4-.06-.64-.06C54.13,319.49,53.44,319.57,53.44,320.59Z" fill="#fff"/><path d="M64.29,327.19v1.44a8.75,8.75,0,0,1-1.22.09c-.79,0-2.26-.11-2.26-2.46V323H59.62v-1.36h1.19v-2.12h1.63v2.12h1.61V323H62.44v2.88c0,1.22.38,1.37,1,1.37A6.31,6.31,0,0,0,64.29,327.19Z" fill="#fff"/><path d="M72.25,324.23v4.4H70.62V325c0-1.48-.39-2.13-1.53-2.13s-1.67.71-1.67,1.94v3.84H65.79v-10.5h1.63v4.48a2.49,2.49,0,0,1,2.28-1.15C71.38,321.46,72.25,322.4,72.25,324.23Z" fill="#fff"/><path d="M80.56,325.67H75.37a1.71,1.71,0,0,0,1.95,1.71,1.53,1.53,0,0,0,1.56-.79h1.65a3,3,0,0,1-3.21,2.22,3.68,3.68,0,0,1-.06-7.35,3.17,3.17,0,0,1,3.35,3.31C80.61,325.06,80.59,325.28,80.56,325.67ZM79,324.43a1.57,1.57,0,0,0-1.77-1.68,1.68,1.68,0,0,0-1.86,1.68Z" fill="#fff"/><path d="M93.24,325.13a3.41,3.41,0,0,1-3.44,3.68,2.71,2.71,0,0,1-2.25-1.13v.95H85.93v-10.5h1.62v4.45a2.85,2.85,0,0,1,2.36-1.12C91.9,321.46,93.24,322.93,93.24,325.13Zm-1.64,0a2.06,2.06,0,1,0-2,2.22A2,2,0,0,0,91.6,325.13Z" fill="#fff"/><path d="M101.1,325.67H95.91a1.71,1.71,0,0,0,2,1.71,1.53,1.53,0,0,0,1.56-.79h1.65a3,3,0,0,1-3.21,2.22,3.68,3.68,0,0,1-.06-7.35,3.16,3.16,0,0,1,3.34,3.31C101.14,325.06,101.13,325.28,101.1,325.67Zm-1.56-1.24a1.58,1.58,0,0,0-1.77-1.68,1.67,1.67,0,0,0-1.86,1.68Z" fill="#fff"/><path d="M102.19,326.48h1.64c0,.6.58,1,1.42,1,.62,0,1-.33,1-.82s-.17-.63-.92-.83l-1.39-.37a1.93,1.93,0,0,1-1.53-2c0-1.18,1.12-2.05,2.68-2.05,1.71,0,2.76.82,2.76,2.17h-1.6c0-.58-.45-.93-1.22-.93-.58,0-1,.3-1,.72s.22.63.87.81l1.39.41a2,2,0,0,1,1.62,2c0,1.37-1.06,2.18-2.76,2.18S102.19,327.82,102.19,326.48Z" fill="#fff"/><path d="M113.41,327.19v1.44a8.46,8.46,0,0,1-1.21.09c-.8,0-2.27-.11-2.27-2.46V323h-1.18v-1.36h1.18v-2.12h1.64v2.12h1.6V323h-1.6v2.88c0,1.22.37,1.37,1,1.37A6.14,6.14,0,0,0,113.41,327.19Z" fill="#fff"/><path d="M114.76,327.47a1.27,1.27,0,0,1,2.54,0,1.27,1.27,0,1,1-2.54,0Z" fill="#fff"/><rect width="160" height="600" fill="none"/></g></g></svg>