<svg xmlns="http://www.w3.org/2000/svg" viewBox="0 0 300 250"><defs><style>.cls-1,.cls-2{fill:none;}.cls-2{stroke:#fff;stroke-miterlimit:10;stroke-width:1.21px;}.cls-3{fill:#fff;}</style></defs><title>cta</title><g id="Layer_2" data-name="Layer 2"><g id="cta"><rect class="cls-1" width="300" height="250"/><path class="cls-2" d="M180.63,183.61h-83A2.54,2.54,0,0,0,95,186v29.14a2.54,2.54,0,0,0,2.63,2.43H202.37a2.54,2.54,0,0,0,2.63-2.43V186a2.54,2.54,0,0,0-2.63-2.43Z"/><path class="cls-3" d="M115.51,195.82h1.62v8.29h3.93v1.52h-5.55Z"/><path class="cls-3" d="M128.19,202.87h-4.85a1.6,1.6,0,0,0,1.82,1.59,1.42,1.42,0,0,0,1.46-.74h1.54a2.8,2.8,0,0,1-3,2.07,3.43,3.43,0,0,1,0-6.86,3,3,0,0,1,3.12,3.1C128.23,202.29,128.22,202.5,128.19,202.87Zm-1.46-1.17a1.47,1.47,0,0,0-1.65-1.57,1.57,1.57,0,0,0-1.74,1.57Z"/><path class="cls-3" d="M129.21,202.36a3.18,3.18,0,0,1,3.25-3.43,2.4,2.4,0,0,1,2.06,1v-.88H136v6.53h-1.51v-.89a2.56,2.56,0,0,1-2.11,1A3.11,3.11,0,0,1,129.21,202.36Zm5.36,0a1.93,1.93,0,1,0-1.93,2.08A1.88,1.88,0,0,0,134.57,202.36Z"/><path class="cls-3" d="M138,199.1h1.53v1.26a1.76,1.76,0,0,1,1.74-1.35,2.58,2.58,0,0,1,.6.06v1.4a4,4,0,0,0-.6,0c-1.08,0-1.74.82-1.74,2.3v2.89H138Z"/><path class="cls-3" d="M143.11,199.1h1.52V200a2.34,2.34,0,0,1,2.13-1.08c1.57,0,2.39.88,2.39,2.59v4.11h-1.53v-3.41c0-1.38-.37-2-1.43-2s-1.56.66-1.56,1.81v3.59h-1.52Z"/><path class="cls-3" d="M154.53,199.1h1.53V200a2.24,2.24,0,0,1,3.88.08,2.19,2.19,0,0,1,2-1.16c2,0,2.36,1.35,2.36,2.56v4.14h-1.53v-3.84c0-1.08-.42-1.56-1.22-1.56s-1.37.38-1.37,1.94v3.46h-1.53v-3.86c0-1.07-.39-1.54-1.19-1.54s-1.4.38-1.4,1.94v3.46h-1.53Z"/><path class="cls-3" d="M165.69,202.36a3.45,3.45,0,1,1,3.45,3.43A3.27,3.27,0,0,1,165.69,202.36Zm5.36,0a1.92,1.92,0,1,0-1.91,2.08A1.87,1.87,0,0,0,171.05,202.36Z"/><path class="cls-3" d="M174.05,199.1h1.53v1.26a1.75,1.75,0,0,1,1.73-1.35,2.52,2.52,0,0,1,.6.06v1.4a4,4,0,0,0-.6,0c-1.08,0-1.73.82-1.73,2.3v2.89h-1.53Z"/><path class="cls-3" d="M184.83,202.87H180a1.61,1.61,0,0,0,1.83,1.59,1.41,1.41,0,0,0,1.45-.74h1.54a2.78,2.78,0,0,1-3,2.07,3.43,3.43,0,0,1-.06-6.86,3,3,0,0,1,3.12,3.1C184.87,202.29,184.86,202.5,184.83,202.87Zm-1.45-1.17a1.48,1.48,0,0,0-1.66-1.57A1.57,1.57,0,0,0,180,201.7Z"/></g></g></svg>