<svg xmlns="http://www.w3.org/2000/svg" viewBox="0 0 300 144.5"><defs><style>.cls-1{fill:#001751;}.cls-2{fill:#006aff;}.cls-3{fill:#fff;}.cls-4{fill:#f2a619;}</style></defs><title>Footer</title><g id="Layer_2" data-name="Layer 2"><g id="Footer"><path class="cls-1" d="M300,0c-35.59.34-71.17,6.45-112,17.48C145.87,28.84,90.33,35.18,69.17,36.34H69L300,65Z"/><path class="cls-2" d="M300,55.16C196.06,18.2,111.6-.36,0,5.6V144.5H300Z"/><polygon class="cls-3" points="285 46.5 281 42.5 276 46.5 276 144.5 285 144.5 285 46.5"/><polygon class="cls-3" points="215 50.5 285 50.5 285 59.5 215 59.5 211 55.5 215 50.5"/><rect class="cls-4" x="215" y="64.5" width="56" height="41"/><rect class="cls-3" x="215" y="110.5" width="56" height="14"/><path class="cls-3" d="M265.37,102.5H220.63A2.66,2.66,0,0,1,218,99.82V92.18a2.66,2.66,0,0,1,2.63-2.68h44.74A2.66,2.66,0,0,1,268,92.18v7.64A2.66,2.66,0,0,1,265.37,102.5ZM220,92.18v7.65a.67.67,0,0,0,.67.67h44.66a.67.67,0,0,0,.67-.67V92.18a.69.69,0,0,0-.68-.68H220.68A.69.69,0,0,0,220,92.18Z"/><path class="cls-3" d="M112.55,104.27h4.86l1.41,4.61c.47,1.52,1.25,4.39,1.25,4.39s.06,0,.07,0,.82-2.92,1.28-4.39l1.48-4.61h3.59l1.45,4.61c.49,1.57,1.25,4.38,1.25,4.38a0,0,0,0,0,.07,0s.79-2.84,1.26-4.38l1.4-4.61h4.52l-4.89,15.22h-4.44l-1.21-3.82c-.47-1.5-1.28-4.41-1.28-4.41a0,0,0,0,0-.08,0s-.81,2.85-1.31,4.38L122,119.49h-4.53Z"/><rect class="cls-3" x="79.82" y="96.23" width="4.92" height="23.26"/><rect class="cls-3" x="88.39" y="96.23" width="4.92" height="23.26"/><path class="cls-3" d="M107.57,111.93a3.56,3.56,0,1,0-3.53,3.81,3.6,3.6,0,0,0,3.53-3.81m-11.83,0A8.27,8.27,0,1,1,104,120a8.08,8.08,0,0,1-8.3-8.07"/><path class="cls-3" d="M51.36,98.38v4.49h8.7a0,0,0,0,1,0,.06l-8.73,14.84a1.33,1.33,0,0,0-.26.85v.87H68V115H58.63s-.05,0,0-.07l8.83-15a1.06,1.06,0,0,0,.14-.6v-.94Z"/><path class="cls-3" d="M71.17,104.27h4.92v15.22H71.17Zm2.46-7.62a2.76,2.76,0,1,1-2.8,2.76,2.79,2.79,0,0,1,2.8-2.76"/><path class="cls-3" d="M35.87,101.65a.2.2,0,0,1,.23.09c.38.42,1.6,1.91,1.93,2.32a.13.13,0,0,1,0,.19,43.76,43.76,0,0,0-6.71,6.57s0,.05,0,0A76.93,76.93,0,0,1,43,107.38v-3.56L32,95.14l-11,8.68v3.89A77.2,77.2,0,0,1,35.87,101.65Z"/><path class="cls-3" d="M26.93,116.74a.18.18,0,0,1-.24,0l-2.05-2.49c-.06-.07-.06-.1,0-.21a39,39,0,0,1,6.9-7.61s0-.05,0,0A90.41,90.41,0,0,0,21,111.05v8.45H43v-8.13A80,80,0,0,0,26.93,116.74Z"/><path class="cls-3" d="M139.72,102.1a.71.71,0,0,0-.73-.74h-.78v2.12h.35v-.63h.34l.39.63h.4l-.42-.68A.73.73,0,0,0,139.72,102.1Zm-.75.43h-.41v-.86H139a.43.43,0,0,1,0,.86Z"/><path class="cls-3" d="M138.89,100.62a1.84,1.84,0,1,0,1.83,1.84A1.84,1.84,0,0,0,138.89,100.62Zm0,3.32a1.49,1.49,0,1,1,1.48-1.48A1.49,1.49,0,0,1,138.89,103.94Z"/></g></g></svg>