<svg xmlns="http://www.w3.org/2000/svg" viewBox="0 0 300 250"><title>footer</title><g id="Layer_2" data-name="Layer 2"><g id="Footer"><path d="M300,105.5c-35.59.34-71.17,6.45-112,17.48-42.08,11.36-97.62,17.7-118.78,18.86H69L300,170.5Z" fill="#001751"/><path d="M300,160.66c-103.94-37-188.4-55.52-300-49.56V250H300Z" fill="#006aff"/><polygon points="285 152 281 148 276 152 276 250 285 250 285 152" fill="#fff"/><polygon points="215 156 285 156 285 165 215 165 211 161 215 156" fill="#fff"/><rect x="215" y="170" width="56" height="41" fill="#f2a619"/><rect x="215" y="216" width="56" height="14" fill="#fff"/><path d="M265.37,208H220.63a2.66,2.66,0,0,1-2.63-2.68v-7.64a2.66,2.66,0,0,1,2.63-2.68h44.74a2.66,2.66,0,0,1,2.63,2.68v7.64A2.66,2.66,0,0,1,265.37,208ZM220,197.68v7.65a.67.67,0,0,0,.67.67h44.66a.67.67,0,0,0,.67-.67v-7.65a.69.69,0,0,0-.68-.68H220.68A.69.69,0,0,0,220,197.68Z" fill="#fff"/><path d="M112.55,209.77h4.86l1.41,4.61c.47,1.52,1.25,4.39,1.25,4.39s.06,0,.07,0,.82-2.92,1.28-4.39l1.48-4.61h3.59l1.45,4.61c.49,1.57,1.25,4.38,1.25,4.38a0,0,0,0,0,.07,0s.79-2.84,1.26-4.38l1.4-4.61h4.52L131.55,225h-4.44l-1.21-3.82c-.47-1.5-1.28-4.41-1.28-4.41a0,0,0,0,0-.08,0s-.81,2.85-1.31,4.38L122,225h-4.53Z" fill="#fff"/><rect x="79.82" y="201.73" width="4.92" height="23.26" fill="#fff"/><rect x="88.39" y="201.73" width="4.92" height="23.26" fill="#fff"/><path d="M107.57,217.43a3.56,3.56,0,1,0-3.53,3.81,3.6,3.6,0,0,0,3.53-3.81m-11.83,0a8.27,8.27,0,1,1,8.3,8.07,8.08,8.08,0,0,1-8.3-8.07" fill="#fff"/><path d="M51.36,203.88v4.49h8.7a0,0,0,0,1,0,.06l-8.73,14.84a1.33,1.33,0,0,0-.26.85V225H68v-4.47H58.63s-.05,0,0-.07l8.83-15a1.06,1.06,0,0,0,.14-.6v-.94Z" fill="#fff"/><path d="M71.17,209.77h4.92V225H71.17Zm2.46-7.62a2.76,2.76,0,1,1-2.8,2.76,2.79,2.79,0,0,1,2.8-2.76" fill="#fff"/><path d="M35.87,207.15a.2.2,0,0,1,.23.09c.38.42,1.6,1.91,1.93,2.32a.13.13,0,0,1,0,.19,43.76,43.76,0,0,0-6.71,6.57s0,.05,0,0A76.93,76.93,0,0,1,43,212.88v-3.56l-11-8.68-11,8.68v3.89A77.2,77.2,0,0,1,35.87,207.15Z" fill="#fff"/><path d="M26.93,222.24a.18.18,0,0,1-.24,0l-2.05-2.49c-.06-.07-.06-.1,0-.21a39,39,0,0,1,6.9-7.61s0-.05,0,0A90.41,90.41,0,0,0,21,216.55V225H43v-8.13A80,80,0,0,0,26.93,222.24Z" fill="#fff"/><path d="M139.72,207.6a.71.71,0,0,0-.73-.74h-.78V209h.35v-.63h.34l.39.63h.4l-.42-.68A.73.73,0,0,0,139.72,207.6ZM139,208h-.41v-.86H139a.43.43,0,0,1,0,.86Z" fill="#fff"/><path d="M138.89,206.12a1.84,1.84,0,1,0,1.83,1.84A1.84,1.84,0,0,0,138.89,206.12Zm0,3.32a1.49,1.49,0,1,1,1.48-1.48A1.49,1.49,0,0,1,138.89,209.44Z" fill="#fff"/><rect width="300" height="250" fill="none"/></g></g></svg>