<svg xmlns="http://www.w3.org/2000/svg" viewBox="0 0 206.73 185.82"><defs><style>.cls-1,.cls-4,.cls-9{fill:#fff;}.cls-2{fill:#eaa306;}.cls-3{fill:#006aff;}.cls-4{font-size:15px;}.cls-4,.cls-9{font-family:GTWalsheim-Medium, GT Walsheim;font-weight:500;}.cls-5{letter-spacing:-0.06em;}.cls-6{letter-spacing:-0.01em;}.cls-7{letter-spacing:0em;}.cls-8{fill:none;stroke:#fff;stroke-miterlimit:10;stroke-width:1.21px;}.cls-9{font-size:14px;}.cls-10{letter-spacing:-0.02em;}.cls-11{letter-spacing:-0.01em;}</style></defs><title>Resolve</title><g id="Layer_2" data-name="Layer 2"><g id="Resolve"><path class="cls-1" d="M81.54,47.86v4h7.69s0,0,0,.06L81.54,65a1.17,1.17,0,0,0-.24.75v.78h15v-4H88a0,0,0,0,1,0-.06l7.81-13.29a1,1,0,0,0,.12-.54v-.83Z"/><path class="cls-1" d="M100.9,47.86h4.37V66.54H100.9Z"/><path class="cls-1" d="M136.26,62.8v3.74h-10.6V47.86H130V62.8Z"/><path class="cls-1" d="M121.52,62.8v3.74H110.93V47.86h4.32V62.8Z"/><path class="cls-1" d="M148.45,67a10.26,10.26,0,0,1-4.16-.82A9.7,9.7,0,0,1,141.17,64a9.25,9.25,0,0,1-1.94-3.14,10.5,10.5,0,0,1,0-7.38,9.25,9.25,0,0,1,1.94-3.14,9.7,9.7,0,0,1,3.12-2.17,10.26,10.26,0,0,1,4.16-.82,10.14,10.14,0,0,1,4.15.82,9.65,9.65,0,0,1,3.11,2.17,9.43,9.43,0,0,1,1.95,3.14,10.65,10.65,0,0,1,0,7.38A9.43,9.43,0,0,1,155.71,64a9.65,9.65,0,0,1-3.11,2.17A10.14,10.14,0,0,1,148.45,67Zm0-3.9a5.18,5.18,0,0,0,2.3-.49,5.34,5.34,0,0,0,1.72-1.32,5.83,5.83,0,0,0,1.08-1.9,6.79,6.79,0,0,0,0-4.42,5.83,5.83,0,0,0-1.08-1.9,5.34,5.34,0,0,0-1.72-1.32,5.62,5.62,0,0,0-4.59,0,5.24,5.24,0,0,0-1.72,1.32,5.83,5.83,0,0,0-1.08,1.9,6.79,6.79,0,0,0,0,4.42,5.83,5.83,0,0,0,1.08,1.9,5.24,5.24,0,0,0,1.72,1.32A5.16,5.16,0,0,0,148.45,63.12Z"/><path class="cls-1" d="M174.11,54.8,170.4,66.54h-3.54l-6.59-18.68h4.56l3.81,12.25,3.79-12.25h3.34l3.81,12.25,3.79-12.25h4.56l-6.59,18.68h-3.52Z"/><path class="cls-1" d="M80.2,16.43h7.73A7.78,7.78,0,0,1,91,17a5,5,0,0,1,1.84,1.28,4,4,0,0,1,.88,1.64,6.45,6.45,0,0,1,.22,1.6,4.06,4.06,0,0,1-.29,1.59,4.25,4.25,0,0,1-.77,1.24,4.52,4.52,0,0,1-2.19,1.33,2.42,2.42,0,0,1,1,.28,4.14,4.14,0,0,1,1.12.8A4.25,4.25,0,0,1,93.78,28a4.44,4.44,0,0,1,.36,1.84,6.49,6.49,0,0,1-.24,1.63,4.45,4.45,0,0,1-.9,1.7,5.1,5.1,0,0,1-1.87,1.35A7.49,7.49,0,0,1,88,35.1H80.2ZM87.08,24a3.34,3.34,0,0,0,1.29-.21,2.36,2.36,0,0,0,.79-.55,1.88,1.88,0,0,0,.4-.73,3,3,0,0,0,.1-.75,2.84,2.84,0,0,0-.09-.69,1.8,1.8,0,0,0-.37-.71,2.19,2.19,0,0,0-.79-.56,3.31,3.31,0,0,0-1.33-.23H84.49V24ZM84.49,27.2v4.59h2.69a3.36,3.36,0,0,0,1.3-.21,2.22,2.22,0,0,0,.78-.55,1.76,1.76,0,0,0,.4-.73,3.21,3.21,0,0,0,.11-.8,2.8,2.8,0,0,0-.11-.72,2,2,0,0,0-.38-.75,2.24,2.24,0,0,0-.79-.59,3,3,0,0,0-1.28-.24Z"/><path class="cls-1" d="M119.59,28.91a3.27,3.27,0,0,0,.82,2.37,2.87,2.87,0,0,0,2.16.86,2.6,2.6,0,0,0,1.75-.6A2,2,0,0,0,125,30a1.88,1.88,0,0,0-.23-.95,2.6,2.6,0,0,0-.61-.68,4.71,4.71,0,0,0-.92-.52l-1.15-.46c-.85-.32-1.67-.64-2.44-1a8.28,8.28,0,0,1-2-1.16,5.11,5.11,0,0,1-1.36-1.64,5,5,0,0,1-.51-2.38,4.57,4.57,0,0,1,.55-2.27,5.09,5.09,0,0,1,1.45-1.65,6.43,6.43,0,0,1,2.09-1,9.2,9.2,0,0,1,2.47-.33,8.14,8.14,0,0,1,2.91.48,5.9,5.9,0,0,1,2.08,1.3,5.63,5.63,0,0,1,1.24,1.9A6.35,6.35,0,0,1,129,21.9h-4.32a3,3,0,0,0-.6-2,2.11,2.11,0,0,0-1.72-.72,2.66,2.66,0,0,0-1.6.48,1.65,1.65,0,0,0-.67,1.44,1.75,1.75,0,0,0,.74,1.48,7.21,7.21,0,0,0,1.93,1c.76.26,1.54.55,2.32.86a9.92,9.92,0,0,1,2.11,1.15,5.73,5.73,0,0,1,1.53,1.65,4.43,4.43,0,0,1,.6,2.36,5.94,5.94,0,0,1-.52,2.56A5.2,5.2,0,0,1,127.35,34a6.41,6.41,0,0,1-2.22,1.15,9.61,9.61,0,0,1-2.82.39,8.68,8.68,0,0,1-2.79-.44,6.47,6.47,0,0,1-2.24-1.3,5.76,5.76,0,0,1-1.48-2.09,7.05,7.05,0,0,1-.54-2.84Z"/><path class="cls-1" d="M168,35.58a10.06,10.06,0,0,1-4.16-.82,9.34,9.34,0,0,1-3.12-2.17,9.49,9.49,0,0,1-2-3.13,10.67,10.67,0,0,1,0-7.39,9.27,9.27,0,0,1,5.07-5.31,11.06,11.06,0,0,1,8.31,0,9.65,9.65,0,0,1,3.11,2.17,9.35,9.35,0,0,1,1.94,3.14,10.52,10.52,0,0,1,0,7.39,9.3,9.3,0,0,1-1.94,3.13,9.5,9.5,0,0,1-3.11,2.17A10,10,0,0,1,168,35.58Zm0-3.9a5.18,5.18,0,0,0,2.3-.49A5.34,5.34,0,0,0,172,29.87,5.89,5.89,0,0,0,173.09,28a6.82,6.82,0,0,0,0-4.43A5.89,5.89,0,0,0,172,21.66a5.08,5.08,0,0,0-1.72-1.32,5.52,5.52,0,0,0-4.59,0A5,5,0,0,0,164,21.66a5.89,5.89,0,0,0-1.08,1.89,6.65,6.65,0,0,0,0,4.43A5.89,5.89,0,0,0,164,29.87a5.24,5.24,0,0,0,1.72,1.32A5.13,5.13,0,0,0,168,31.68Z"/><path class="cls-1" d="M187,20.06v5h6.4v3.54H187V35.1h-4.32V16.43h12.05v3.63Z"/><path class="cls-1" d="M102.9,19.89v4.25h6.9v3.38h-6.9v4.11h7.41V35.1H98.69V16.43h11.62v3.46Z"/><path class="cls-1" d="M137.22,20.16H132.6V16.43h13.48v3.73h-4.64V35.1h-4.22Z"/><polygon class="cls-2" points="12 55.08 12 85.92 34.32 68.23 56.6 85.92 56.6 55.08 12 55.08"/><path class="cls-3" d="M42.16,13.21c.22-.06.32,0,.46.17.76.87,3.23,3.88,3.91,4.7a.26.26,0,0,1-.06.39A88.63,88.63,0,0,0,32.86,31.8c-.07.08,0,.09,0,.07a155,155,0,0,1,23.71-7V17.61L34.32,0,12,17.61v7.88C18.92,21.38,34.91,15,42.16,13.21Z"/><path class="cls-3" d="M24,43.5a.37.37,0,0,1-.48-.08l-4.16-5c-.12-.14-.13-.21,0-.43,3.21-4.71,9.77-12,14-15.15.07-.05.05-.11,0-.08A187.12,187.12,0,0,0,12,32.15V49H56.6V32.78C50.51,33.82,32.31,39.23,24,43.5Z"/><text class="cls-4" transform="translate(0 124.04)"><tspan class="cls-5">W</tspan><tspan x="13.62" y="0">ork with the be</tspan><tspan class="cls-6" x="114.39" y="0">s</tspan><tspan x="121.09" y="0">t </tspan><tspan class="cls-6" x="130.33" y="0">o</tspan><tspan class="cls-7" x="138.61" y="0">f the be</tspan><tspan class="cls-6" x="190.2" y="0">s</tspan><tspan x="196.9" y="0">t.</tspan></text><path class="cls-8" d="M134,151.22H51a2.54,2.54,0,0,0-2.63,2.43v29.14A2.54,2.54,0,0,0,51,185.22H155.74a2.53,2.53,0,0,0,2.62-2.43V153.65a2.53,2.53,0,0,0-2.62-2.43Z"/><text class="cls-9" transform="translate(67.83 173.24)"><tspan class="cls-10">L</tspan><tspan x="6.87" y="0">earn mo</tspan><tspan class="cls-11" x="58.6" y="0">r</tspan><tspan x="63.52" y="0">e</tspan></text></g></g></svg>