<svg xmlns="http://www.w3.org/2000/svg" viewBox="0 0 300 250"><defs><style>.cls-1{fill:#fff;}.cls-2{fill:none;}</style></defs><title>txt1a</title><g id="Layer_2" data-name="Layer 2"><g id="txt1a"><path class="cls-1" d="M21,139.17h3.89V156H21Z"/><path class="cls-1" d="M28.05,144.4h3.68v1.68a3.91,3.91,0,0,1,3.74-2c2.81,0,4.22,1.58,4.22,4.72V156H36V150c0-2-.55-2.84-2-2.84s-2.23,1-2.23,2.74V156H28.05Z"/><path class="cls-1" d="M49.75,153V156a15,15,0,0,1-2.45.19c-1.73,0-4.1-.38-4.1-4.25V147.3H41.37v-2.9H43.2V141h3.67v3.43h2.62v2.9H46.87v3.84c0,1.71.7,2,1.61,2A10,10,0,0,0,49.75,153Z"/><path class="cls-1" d="M51.86,144.4h3.67v2.42a3.24,3.24,0,0,1,3.2-2.61,3.72,3.72,0,0,1,1,.09v3.41a8.07,8.07,0,0,0-1.11-.07c-2,0-3,1.3-3,3.86V156H51.86Z"/><path class="cls-1" d="M60.67,150.18c0-3.53,2.45-6.09,6.43-6.09s6.41,2.56,6.41,6.09-2.45,6.1-6.41,6.1S60.67,153.71,60.67,150.18Zm9.19,0a2.77,2.77,0,1,0-2.76,3A2.71,2.71,0,0,0,69.86,150.18Z"/><path class="cls-1" d="M87.74,139.17V156H84.09v-1.63a4.15,4.15,0,0,1-3.67,1.94c-3.46,0-5.45-2.62-5.45-6.1s2.14-6.09,5.5-6.09a4,4,0,0,1,3.62,2v-6.88Zm-3.5,11a2.77,2.77,0,1,0-5.52,0,2.77,2.77,0,1,0,5.52,0Z"/><path class="cls-1" d="M90.67,151.55V144.4h3.72v6.34c0,1.58.53,2.44,1.92,2.44,1.56,0,2.23-1,2.23-2.56V144.4h3.65V156H98.54v-1.66a3.78,3.78,0,0,1-3.6,2C92.16,156.28,90.67,154.55,90.67,151.55Z"/><path class="cls-1" d="M104.32,150.18c0-3.64,2.38-6.09,6.2-6.09,3.45,0,5.71,1.82,6,4.7h-3.68c-.26-1.08-1-1.58-2.3-1.58-1.58,0-2.54,1-2.54,3s1,3,2.54,3c1.34,0,2-.48,2.3-1.49h3.68c-.29,2.81-2.55,4.61-6,4.61C106.7,156.28,104.32,153.83,104.32,150.18Z"/><path class="cls-1" d="M118.2,141.16a2.21,2.21,0,0,1,2.25-2.26,2.25,2.25,0,1,1,0,4.49A2.2,2.2,0,0,1,118.2,141.16Zm.43,3.24h3.65V156h-3.65Z"/><path class="cls-1" d="M125.32,144.4H129v1.68a3.91,3.91,0,0,1,3.74-2c2.81,0,4.23,1.58,4.23,4.72V156h-3.7V150c0-2-.55-2.84-2-2.84s-2.23,1-2.23,2.74V156h-3.68Z"/><path class="cls-1" d="M151.85,144.4v10.82a5.69,5.69,0,0,1-2.24,4.88,7.1,7.1,0,0,1-4.13,1,8,8,0,0,1-4.17-.94,4.18,4.18,0,0,1-2.07-3.21H143c.17.91,1,1.46,2.45,1.46,1.7,0,2.73-.74,2.73-2.81V154.1a4.07,4.07,0,0,1-3.62,1.87c-3.43,0-5.5-2.5-5.5-5.91s2.21-6,5.55-6a3.89,3.89,0,0,1,3.57,2V144.4Zm-3.51,5.71a2.77,2.77,0,1,0-2.78,3A2.77,2.77,0,0,0,148.34,150.11Z"/><rect class="cls-2" width="300" height="250"/></g></g></svg>