<svg xmlns="http://www.w3.org/2000/svg" viewBox="0 0 300 250"><defs><style>.cls-1{fill:#fff;}.cls-2{fill:none;}</style></defs><title>txt1b</title><g id="Layer_2" data-name="Layer 2"><g id="txt1b"><path class="cls-1" d="M33.57,176.31c0,2.88-2,4.66-5.37,4.66H21v-16.8h6.91c3.34,0,5.4,1.65,5.4,4.37a3.65,3.65,0,0,1-3.21,3.84A3.71,3.71,0,0,1,33.57,176.31ZM24.91,167v4.08h2.16c1.49,0,2.38-.76,2.38-2s-.87-2-2.38-2Zm4.75,8.84a2.08,2.08,0,0,0-2.33-2.07H24.91V178h2.42A2.09,2.09,0,0,0,29.66,175.81Z"/><path class="cls-1" d="M47.54,176.19H39c.07,1.51,1.08,2.33,2.71,2.33,1.13,0,1.85-.31,2.16-1h3.6c-.36,2.28-2.69,3.79-5.76,3.79-3.94,0-6.36-2.23-6.36-6.1s2.47-6.09,6.24-6.09c3.6,0,6,2.23,6,5.49A13,13,0,0,1,47.54,176.19ZM44,173.91a2.18,2.18,0,0,0-2.45-2.35A2.31,2.31,0,0,0,39,173.91Z"/><path class="cls-1" d="M49,177.49H52.6c0,.79.77,1.34,1.9,1.34.79,0,1.34-.38,1.34-1.05s-.26-.84-1.24-1.08l-2.43-.6a3.37,3.37,0,0,1-2.9-3.39c0-2.18,2-3.62,4.94-3.62,3.27,0,5.16,1.27,5.16,3.57H55.75c0-.81-.6-1.24-1.58-1.24-.8,0-1.33.38-1.33.93s.34.86,1.28,1.11l2.45.67c1.82.48,2.92,1.58,2.92,3.33,0,2.4-2,3.82-5.06,3.82C51.14,181.28,49,179.74,49,177.49Z"/><path class="cls-1" d="M69,178V181a15,15,0,0,1-2.45.19c-1.73,0-4.1-.38-4.1-4.25V172.3H60.57v-2.9H62.4V166h3.67v3.43h2.61v2.9H66.07v3.84c0,1.71.69,2,1.61,2A10.13,10.13,0,0,0,69,178Z"/><path class="cls-1" d="M76,175.18c0-3.52,2.45-6.09,6.43-6.09s6.41,2.57,6.41,6.09-2.45,6.1-6.41,6.1S76,178.71,76,175.18Zm9.19,0a2.77,2.77,0,1,0-2.76,3A2.71,2.71,0,0,0,85.17,175.18Z"/><path class="cls-1" d="M95.37,168.22v1.18h2.69v2.9H95.37V181H91.7V172.3H89.64v-2.9H91.7v-1.13A3.93,3.93,0,0,1,96,164a7.2,7.2,0,0,1,2.11.26v2.62c-.38,0-.67-.07-1-.07C96.26,166.76,95.37,167,95.37,168.22Z"/><path class="cls-1" d="M112.49,167.43h-6.94v-3.26h13.1l-7.89,13.53h7.46V181h-13.7Z"/><path class="cls-1" d="M120.16,166.16a2.27,2.27,0,1,1,2.26,2.23A2.21,2.21,0,0,1,120.16,166.16Zm.44,3.24h3.65V181H120.6Z"/><path class="cls-1" d="M127.29,164.17H131V181h-3.67Z"/><path class="cls-1" d="M134,164.17h3.67V181H134Z"/><path class="cls-1" d="M139.77,175.18c0-3.52,2.45-6.09,6.43-6.09s6.41,2.57,6.41,6.09-2.44,6.1-6.41,6.1S139.77,178.71,139.77,175.18Zm9.19,0a2.77,2.77,0,1,0-2.76,3A2.71,2.71,0,0,0,149,175.18Z"/><path class="cls-1" d="M152.8,169.4h3.84l2.09,7,2-7h3.58l2,7,2.08-7h3.82L168,181h-3.29l-2.23-7-2.21,7H157Z"/><path class="cls-1" d="M172.41,178.86a2.38,2.38,0,1,1,2.38,2.35A2.35,2.35,0,0,1,172.41,178.86Z"/><rect class="cls-2" width="300" height="250"/></g></g></svg>