<svg xmlns="http://www.w3.org/2000/svg" viewBox="0 0 300 250"><defs><style>.cls-1{fill:none;}.cls-2{fill:#fff;}</style></defs><title>txt2b</title><g id="Layer_2" data-name="Layer 2"><g id="txt2b"><rect class="cls-1" width="300" height="250"/><path class="cls-2" d="M20.06,171.18c0-3.45,2.14-6.09,5.5-6.09a4,4,0,0,1,3.62,2V165.4h3.65V177H29.18v-1.63a4.15,4.15,0,0,1-3.67,1.94C22.05,177.28,20.06,174.66,20.06,171.18Zm9.27,0a2.77,2.77,0,1,0-5.52,0,2.77,2.77,0,1,0,5.52,0Z"/><path class="cls-2" d="M47.83,165.4v10.82a5.68,5.68,0,0,1-2.23,4.88,7.15,7.15,0,0,1-4.13,1,8.06,8.06,0,0,1-4.18-.94A4.19,4.19,0,0,1,35.23,178H39c.17.91,1,1.46,2.45,1.46,1.7,0,2.74-.74,2.74-2.81V175.1A4.1,4.1,0,0,1,40.53,177c-3.43,0-5.49-2.5-5.49-5.91s2.21-6,5.54-6a3.89,3.89,0,0,1,3.58,2V165.4Zm-3.5,5.71a2.78,2.78,0,1,0-2.79,3A2.78,2.78,0,0,0,44.33,171.11Z"/><path class="cls-2" d="M62.13,172.19H53.59c.07,1.51,1.08,2.33,2.71,2.33,1.13,0,1.85-.31,2.16-1h3.6c-.36,2.28-2.69,3.79-5.76,3.79-3.94,0-6.36-2.23-6.36-6.1s2.47-6.09,6.24-6.09c3.6,0,6,2.23,6,5.49A11.31,11.31,0,0,1,62.13,172.19Zm-3.53-2.28a2.17,2.17,0,0,0-2.44-2.35,2.32,2.32,0,0,0-2.57,2.35Z"/><path class="cls-2" d="M64.34,165.4H68v1.68a3.92,3.92,0,0,1,3.75-2c2.8,0,4.22,1.58,4.22,4.73V177H72.29V171c0-2-.56-2.84-2.05-2.84s-2.23,1-2.23,2.74V177H64.34Z"/><path class="cls-2" d="M86,174V177a15.14,15.14,0,0,1-2.45.19c-1.73,0-4.11-.38-4.11-4.25V168.3H77.66v-2.9h1.82V162h3.68v3.43h2.61v2.9H83.16v3.84c0,1.71.69,2,1.6,2A10.19,10.19,0,0,0,86,174Z"/><path class="cls-2" d="M87.24,173.49h3.64c0,.79.77,1.34,1.9,1.34.79,0,1.34-.38,1.34-1.05s-.26-.84-1.24-1.08l-2.43-.6a3.37,3.37,0,0,1-2.9-3.39c0-2.18,2-3.62,4.94-3.62,3.27,0,5.16,1.27,5.16,3.57H94c0-.81-.6-1.24-1.59-1.24-.79,0-1.32.38-1.32.93s.34.86,1.28,1.11l2.44.67c1.83.48,2.93,1.58,2.93,3.33,0,2.4-2,3.82-5.06,3.82C89.42,177.28,87.24,175.74,87.24,173.49Z"/><path class="cls-2" d="M99.5,174.86a2.38,2.38,0,1,1,2.38,2.35A2.35,2.35,0,0,1,99.5,174.86Z"/></g></g></svg>