<svg xmlns="http://www.w3.org/2000/svg" viewBox="0 0 300 250"><defs><style>.cls-1{fill:none;}.cls-2{fill:#fff;}</style></defs><title>txt2a</title><g id="Layer_2" data-name="Layer 2"><g id="txt2a"><rect class="cls-1" width="300" height="250"/><path class="cls-2" d="M24.12,138.62H19.51v-3.45h13.1v3.45H28V152H24.12Z"/><path class="cls-2" d="M31.82,146.18c0-3.53,2.45-6.09,6.43-6.09s6.41,2.56,6.41,6.09-2.45,6.1-6.41,6.1S31.82,149.71,31.82,146.18Zm9.19,0a2.77,2.77,0,1,0-2.76,3A2.71,2.71,0,0,0,41,146.18Z"/><path class="cls-2" d="M59.54,146.18c0,3.63-2.23,6.1-5.42,6.1a4.19,4.19,0,0,1-3.7-1.95v6.44H46.77V140.4h3.65v1.65a4.36,4.36,0,0,1,3.79-2C57.38,140.09,59.54,142.54,59.54,146.18Zm-3.74,0a2.77,2.77,0,1,0-2.74,3A2.77,2.77,0,0,0,55.8,146.18Z"/><path class="cls-2" d="M61.32,143.85h7.61v2.93H61.32Z"/><path class="cls-2" d="M71.52,140.4h3.67v2.42a3.23,3.23,0,0,1,3.19-2.61,3.72,3.72,0,0,1,1,.09v3.41a7.92,7.92,0,0,0-1.1-.07c-2,0-3,1.29-3,3.86V152H71.52Z"/><path class="cls-2" d="M80.16,146.18c0-3.45,2.13-6.09,5.49-6.09a4,4,0,0,1,3.63,2V140.4h3.65V152H89.28v-1.64a4.16,4.16,0,0,1-3.67,1.95C82.15,152.28,80.16,149.66,80.16,146.18Zm9.26,0a2.77,2.77,0,1,0-5.52,0,2.77,2.77,0,0,0,2.76,3C88.49,149.23,89.42,147.86,89.42,146.18Z"/><path class="cls-2" d="M103.32,149V152a15.14,15.14,0,0,1-2.45.19c-1.73,0-4.11-.38-4.11-4.25V143.3H94.94v-2.9h1.82V137h3.68v3.43h2.61v2.9h-2.61v3.84c0,1.71.69,2,1.6,2A10.19,10.19,0,0,0,103.32,149Z"/><path class="cls-2" d="M116.71,147.19h-8.54c.07,1.51,1.08,2.33,2.71,2.33,1.12,0,1.84-.31,2.16-1h3.6c-.36,2.28-2.69,3.79-5.76,3.79-3.94,0-6.36-2.23-6.36-6.1s2.47-6.09,6.24-6.09c3.6,0,6,2.23,6,5.49A13,13,0,0,1,116.71,147.19Zm-3.53-2.28a2.18,2.18,0,0,0-2.45-2.35,2.31,2.31,0,0,0-2.56,2.35Z"/><path class="cls-2" d="M131,135.17V152h-3.65v-1.64a4.16,4.16,0,0,1-3.67,1.95c-3.46,0-5.45-2.62-5.45-6.1s2.13-6.09,5.49-6.09a4,4,0,0,1,3.63,2v-6.88Zm-3.51,11a2.77,2.77,0,1,0-5.52,0,2.77,2.77,0,0,0,2.76,3C126.6,149.23,127.53,147.86,127.53,146.18Z"/></g></g></svg>