<svg xmlns="http://www.w3.org/2000/svg" viewBox="0 0 300 250"><defs><style>.cls-1{fill:none;}.cls-2{fill:#fff;}</style></defs><title>txt3b</title><g id="Layer_2" data-name="Layer 2"><g id="txt3b"><rect class="cls-1" width="300" height="250"/><path class="cls-2" d="M33.67,175.18c0,3.63-2.23,6.1-5.42,6.1a4.2,4.2,0,0,1-3.7-1.94V181H20.9v-16.8h3.65v6.88a4.33,4.33,0,0,1,3.79-2C31.51,169.09,33.67,171.54,33.67,175.18Zm-3.74,0a2.77,2.77,0,1,0-2.74,3A2.77,2.77,0,0,0,29.93,175.18Z"/><path class="cls-2" d="M47.37,169.4v11.21a5.45,5.45,0,0,1-1.65,4.17,6.05,6.05,0,0,1-4.25,1.35,6.44,6.44,0,0,1-4.27-1.2,4.1,4.1,0,0,1-1.44-3.05h3.69c.08,1,.63,1.56,2,1.56s2.23-.79,2.23-2.59v-1.8A3.88,3.88,0,0,1,40,181c-3,0-4.27-2-4.27-4.85V169.4h3.67v6.17c0,1.49.5,2.49,2,2.49s2.23-1.15,2.23-2.92V169.4Z"/><path class="cls-2" d="M67.73,169.4v11.21a5.46,5.46,0,0,1-1.66,4.17,6,6,0,0,1-4.25,1.35,6.44,6.44,0,0,1-4.27-1.2,4.1,4.1,0,0,1-1.44-3.05H59.8c.08,1,.63,1.56,2,1.56s2.23-.79,2.23-2.59v-1.8A3.87,3.87,0,0,1,60.38,181c-3,0-4.27-2-4.27-4.85V169.4h3.67v6.17c0,1.49.51,2.49,2,2.49s2.23-1.15,2.23-2.92V169.4Z"/><path class="cls-2" d="M69.84,175.18c0-3.52,2.45-6.09,6.43-6.09s6.41,2.57,6.41,6.09-2.45,6.1-6.41,6.1S69.84,178.71,69.84,175.18Zm9.19,0a2.77,2.77,0,1,0-2.76,3A2.71,2.71,0,0,0,79,175.18Z"/><path class="cls-2" d="M84.67,176.55V169.4h3.72v6.34c0,1.58.53,2.44,1.92,2.44,1.56,0,2.23-1,2.23-2.56V169.4h3.65V181H92.54v-1.66a3.78,3.78,0,0,1-3.6,2C86.16,181.28,84.67,179.55,84.67,176.55Z"/><path class="cls-2" d="M99.09,178.86a2.38,2.38,0,1,1,2.38,2.35A2.35,2.35,0,0,1,99.09,178.86Z"/></g></g></svg>