<svg xmlns="http://www.w3.org/2000/svg" viewBox="0 0 300 250"><defs><style>.cls-1{fill:none;}.cls-2{fill:#fff;}</style></defs><title>txt3a</title><g id="Layer_2" data-name="Layer 2"><g id="txt3a"><rect class="cls-1" width="300" height="250"/><path class="cls-2" d="M31.05,150.64,34,156H29.59L27,151.31h-2V156H21v-16.8h7.15a6.12,6.12,0,0,1,2.88,11.47Zm-6.14-2.5h2.66a2.91,2.91,0,0,0,0-5.81H24.91Z"/><path class="cls-2" d="M35.42,150.18c0-3.45,2.14-6.09,5.5-6.09a4,4,0,0,1,3.62,2V144.4h3.65V156H44.54v-1.64a4.13,4.13,0,0,1-3.67,1.95C37.41,156.28,35.42,153.66,35.42,150.18Zm9.27,0a2.77,2.77,0,1,0-5.52,0,2.77,2.77,0,1,0,5.52,0Z"/><path class="cls-2" d="M51.24,144.4h3.67v1.68a3.91,3.91,0,0,1,3.74-2c2.81,0,4.23,1.58,4.23,4.72V156h-3.7v-6c0-1.94-.55-2.83-2-2.83s-2.23,1-2.23,2.74V156H51.24Z"/><path class="cls-2" d="M73.15,156l-3.7-5v5H65.8v-16.8h3.65v10.1l3.8-4.87h4.32L73,149.87l4.68,6.1Z"/><path class="cls-2" d="M89.59,151.19H81c.08,1.51,1.08,2.33,2.72,2.33,1.12,0,1.84-.31,2.16-1h3.6c-.36,2.28-2.69,3.79-5.76,3.79-3.94,0-6.36-2.23-6.36-6.1s2.47-6.09,6.24-6.09c3.6,0,6,2.23,6,5.49A13,13,0,0,1,89.59,151.19Zm-3.53-2.28a2.18,2.18,0,0,0-2.45-2.35A2.32,2.32,0,0,0,81,148.91Z"/><path class="cls-2" d="M103.92,139.17V156h-3.65v-1.64a4.16,4.16,0,0,1-3.67,1.95c-3.46,0-5.45-2.62-5.45-6.1s2.13-6.09,5.49-6.09a4,4,0,0,1,3.63,2v-6.88Zm-3.51,11a2.77,2.77,0,1,0-5.52,0,2.77,2.77,0,0,0,2.76,3C99.48,153.23,100.41,151.86,100.41,150.18Z"/></g></g></svg>