<svg xmlns="http://www.w3.org/2000/svg" viewBox="0 0 300 250"><defs><style>.cls-1{fill:none;}.cls-2{fill:#fff;}</style></defs><title>txt4a</title><g id="Layer_2" data-name="Layer 2"><g id="txt4a"><rect class="cls-1" width="300" height="250"/><path class="cls-2" d="M21,139.17H31.29v3.26H24.91V147h6.38v3.19H24.91V156H21Z"/><path class="cls-2" d="M33,150.18c0-3.53,2.45-6.09,6.43-6.09s6.41,2.56,6.41,6.09-2.45,6.1-6.41,6.1S33,153.71,33,150.18Zm9.19,0a2.77,2.77,0,1,0-2.76,3A2.71,2.71,0,0,0,42.21,150.18Z"/><path class="cls-2" d="M48,144.4h3.67v2.42a3.24,3.24,0,0,1,3.2-2.61,3.72,3.72,0,0,1,1,.09v3.41a8,8,0,0,0-1.11-.07c-2,0-3,1.29-3,3.86V156H48Z"/><path class="cls-2" d="M74.88,151.19H66.33c.07,1.51,1.08,2.33,2.71,2.33,1.13,0,1.85-.31,2.17-1h3.6c-.36,2.28-2.69,3.79-5.77,3.79-3.93,0-6.36-2.23-6.36-6.1s2.48-6.09,6.24-6.09c3.61,0,6,2.23,6,5.49A12.92,12.92,0,0,1,74.88,151.19Zm-3.53-2.28a2.18,2.18,0,0,0-2.45-2.35,2.32,2.32,0,0,0-2.57,2.35Z"/><path class="cls-2" d="M79.58,150.13l-4.13-5.73h4.37l2,3.36,2-3.36h4.39l-4.13,5.73,4.2,5.84H83.9l-2.06-3.46L79.75,156H75.38Z"/><path class="cls-2" d="M88.7,150.18c0-3.64,2.38-6.09,6.19-6.09,3.46,0,5.72,1.82,6,4.7H97.22c-.26-1.08-1-1.58-2.3-1.58-1.59,0-2.55,1-2.55,3s1,3,2.55,3c1.34,0,2-.48,2.3-1.49h3.67c-.28,2.81-2.54,4.61-6,4.61C91.08,156.28,88.7,153.83,88.7,150.18Z"/><path class="cls-2" d="M114.69,151.19h-8.54c.07,1.51,1.08,2.33,2.71,2.33,1.13,0,1.85-.31,2.16-1h3.6c-.36,2.28-2.69,3.79-5.76,3.79-3.94,0-6.36-2.23-6.36-6.1s2.47-6.09,6.24-6.09c3.6,0,6.05,2.23,6.05,5.49A11.31,11.31,0,0,1,114.69,151.19Zm-3.52-2.28a2.18,2.18,0,0,0-2.45-2.35,2.31,2.31,0,0,0-2.57,2.35Z"/><path class="cls-2" d="M129.67,150.18c0,3.63-2.23,6.1-5.42,6.1a4.19,4.19,0,0,1-3.7-1.95v6.44H116.9V144.4h3.65v1.65a4.33,4.33,0,0,1,3.79-2C127.51,144.09,129.67,146.54,129.67,150.18Zm-3.74,0a2.77,2.77,0,1,0-2.74,3A2.77,2.77,0,0,0,125.93,150.18Z"/><path class="cls-2" d="M139.17,153V156a15,15,0,0,1-2.45.19c-1.72,0-4.1-.38-4.1-4.25V147.3H130.8v-2.9h1.82V141h3.67v3.43h2.62v2.9h-2.62v3.84c0,1.71.7,2,1.61,2A9.92,9.92,0,0,0,139.17,153Z"/><path class="cls-2" d="M140.85,141.16a2.27,2.27,0,1,1,2.26,2.23A2.21,2.21,0,0,1,140.85,141.16Zm.43,3.24h3.65V156h-3.65Z"/><path class="cls-2" d="M147.07,150.18c0-3.53,2.45-6.09,6.43-6.09s6.41,2.56,6.41,6.09-2.45,6.1-6.41,6.1S147.07,153.71,147.07,150.18Zm9.19,0a2.77,2.77,0,1,0-2.76,3A2.71,2.71,0,0,0,156.26,150.18Z"/><path class="cls-2" d="M162,144.4h3.67v1.68a3.92,3.92,0,0,1,3.75-2c2.8,0,4.22,1.58,4.22,4.72V156H170v-6c0-1.94-.55-2.83-2-2.83s-2.23,1-2.23,2.74V156H162Z"/><path class="cls-2" d="M175.75,150.18c0-3.45,2.13-6.09,5.49-6.09a4,4,0,0,1,3.63,2V144.4h3.65V156h-3.65v-1.64a4.16,4.16,0,0,1-3.67,1.95C177.74,156.28,175.75,153.66,175.75,150.18Zm9.26,0a2.77,2.77,0,1,0-5.52,0,2.77,2.77,0,0,0,2.76,3C184.08,153.23,185,151.86,185,150.18Z"/><path class="cls-2" d="M191.56,139.17h3.68V156h-3.68Z"/></g></g></svg>