<svg xmlns="http://www.w3.org/2000/svg" viewBox="0 0 300 250"><defs><style>.cls-1{fill:none;}.cls-2{fill:#fff;}</style></defs><title>txt4b</title><g id="Layer_2" data-name="Layer 2"><g id="txt4b"><rect class="cls-1" width="300" height="250"/><path class="cls-2" d="M20.06,177.49h3.65c0,.79.77,1.34,1.9,1.34.79,0,1.34-.38,1.34-1.05s-.26-.84-1.25-1.08l-2.42-.6a3.38,3.38,0,0,1-2.91-3.39c0-2.18,2-3.62,4.95-3.62,3.26,0,5.16,1.27,5.16,3.57H26.85c0-.81-.6-1.24-1.58-1.24-.79,0-1.32.38-1.32.93s.34.86,1.27,1.11l2.45.67c1.82.48,2.93,1.58,2.93,3.33,0,2.4-2,3.82-5.07,3.82C22.25,181.28,20.06,179.74,20.06,177.49Z"/><path class="cls-2" d="M44.23,176.19H35.68c.08,1.51,1.08,2.33,2.72,2.33,1.13,0,1.85-.31,2.16-1h3.6c-.36,2.28-2.69,3.79-5.76,3.79-3.94,0-6.36-2.23-6.36-6.1s2.47-6.09,6.24-6.09c3.6,0,6,2.23,6,5.49A13,13,0,0,1,44.23,176.19Zm-3.53-2.28a2.18,2.18,0,0,0-2.45-2.35,2.33,2.33,0,0,0-2.57,2.35Z"/><path class="cls-2" d="M46.44,169.4h3.67v2.42a3.23,3.23,0,0,1,3.19-2.61,3.72,3.72,0,0,1,1,.09v3.41a7.92,7.92,0,0,0-1.1-.07c-2,0-3,1.3-3,3.86V181H46.44Z"/><path class="cls-2" d="M55.2,169.4h4l2.59,7.27,2.6-7.27h4.08L63.5,181H60.19Z"/><path class="cls-2" d="M69.52,166.16a2.27,2.27,0,1,1,2.26,2.23A2.21,2.21,0,0,1,69.52,166.16ZM70,169.4H73.6V181H70Z"/><path class="cls-2" d="M75.74,175.18c0-3.64,2.38-6.09,6.19-6.09,3.46,0,5.71,1.82,6,4.7H84.26c-.26-1.08-1-1.58-2.3-1.58-1.59,0-2.55,1-2.55,3s1,3,2.55,3c1.34,0,2-.48,2.3-1.49h3.67c-.29,2.81-2.54,4.61-6,4.61C78.12,181.28,75.74,178.83,75.74,175.18Z"/><path class="cls-2" d="M101.73,176.19H93.19c.07,1.51,1.08,2.33,2.71,2.33,1.13,0,1.85-.31,2.16-1h3.6c-.36,2.28-2.69,3.79-5.76,3.79-3.94,0-6.36-2.23-6.36-6.1s2.47-6.09,6.24-6.09c3.6,0,6,2.23,6,5.49A13,13,0,0,1,101.73,176.19Zm-3.53-2.28a2.17,2.17,0,0,0-2.44-2.35,2.32,2.32,0,0,0-2.57,2.35Z"/><path class="cls-2" d="M103.48,178.86a2.38,2.38,0,1,1,2.38,2.35A2.36,2.36,0,0,1,103.48,178.86Z"/></g></g></svg>