<svg xmlns="http://www.w3.org/2000/svg" viewBox="0 0 300 250"><defs><style>.cls-1{fill:none;}.cls-2{fill:#fff;}</style></defs><title>txt5a</title><g id="Layer_2" data-name="Layer 2"><g id="txt5a"><rect class="cls-1" width="300" height="250"/><path class="cls-2" d="M126.83,48.82h7.74a7.73,7.73,0,0,1,3.1.52,4.9,4.9,0,0,1,1.84,1.28,3.93,3.93,0,0,1,.88,1.64,6.05,6.05,0,0,1,.23,1.6,4.25,4.25,0,0,1-.29,1.59,4.39,4.39,0,0,1-1.83,2.1,4.31,4.31,0,0,1-1.13.47,2.42,2.42,0,0,1,1,.28,4.3,4.3,0,0,1,1.12.8,4.36,4.36,0,0,1,1.25,3.16,6.49,6.49,0,0,1-.24,1.63,4.34,4.34,0,0,1-.91,1.7,5,5,0,0,1-1.86,1.35,7.65,7.65,0,0,1-3.12.55h-7.82Zm6.88,7.6a3.36,3.36,0,0,0,1.3-.21,2.22,2.22,0,0,0,.78-.55,1.73,1.73,0,0,0,.4-.74,2.89,2.89,0,0,0,.11-.74,3,3,0,0,0-.09-.7,1.86,1.86,0,0,0-.38-.7,2.15,2.15,0,0,0-.78-.56,3.36,3.36,0,0,0-1.34-.23h-2.58v4.43Zm-2.58,3.17v4.59h2.69a3.34,3.34,0,0,0,1.29-.21,2.36,2.36,0,0,0,.79-.55,1.76,1.76,0,0,0,.4-.73,3.21,3.21,0,0,0,.11-.8,2.8,2.8,0,0,0-.11-.72,1.93,1.93,0,0,0-.39-.75,2.2,2.2,0,0,0-.78-.59,3,3,0,0,0-1.28-.24Z"/><path class="cls-2" d="M166.22,61.3a3.27,3.27,0,0,0,.83,2.37,2.87,2.87,0,0,0,2.16.86,2.64,2.64,0,0,0,1.75-.6,2,2,0,0,0,.7-1.59,1.88,1.88,0,0,0-.22-1,2.47,2.47,0,0,0-.62-.68,4.44,4.44,0,0,0-.92-.52l-1.14-.46c-.86-.32-1.67-.64-2.44-1a8.35,8.35,0,0,1-2-1.16A5.27,5.27,0,0,1,162.94,56a5,5,0,0,1-.51-2.37,4.68,4.68,0,0,1,.55-2.27,5.33,5.33,0,0,1,1.45-1.65,6.58,6.58,0,0,1,2.1-1,9.15,9.15,0,0,1,2.47-.33,8,8,0,0,1,2.9.48,5.81,5.81,0,0,1,2.08,1.3,5.48,5.48,0,0,1,1.24,1.9,6.09,6.09,0,0,1,.42,2.26h-4.32a3,3,0,0,0-.6-2,2.12,2.12,0,0,0-1.72-.72,2.64,2.64,0,0,0-1.6.48,1.65,1.65,0,0,0-.67,1.44,1.74,1.74,0,0,0,.73,1.48,7.15,7.15,0,0,0,1.94,1c.76.27,1.53.56,2.32.87a9.6,9.6,0,0,1,2.1,1.15,5.63,5.63,0,0,1,1.54,1.65A4.43,4.43,0,0,1,176,62a6.09,6.09,0,0,1-.52,2.56A5.11,5.11,0,0,1,174,66.43a6.37,6.37,0,0,1-2.21,1.15,9.68,9.68,0,0,1-2.83.39,8.66,8.66,0,0,1-2.78-.44,6.52,6.52,0,0,1-2.25-1.3,6,6,0,0,1-1.48-2.09,7.23,7.23,0,0,1-.53-2.84Z"/><path class="cls-2" d="M214.63,68a10,10,0,0,1-4.16-.82A9.34,9.34,0,0,1,207.35,65a9.17,9.17,0,0,1-1.95-3.13,10.52,10.52,0,0,1,0-7.39,9.22,9.22,0,0,1,1.95-3.14,9.49,9.49,0,0,1,3.12-2.17,11.06,11.06,0,0,1,8.31,0,9.61,9.61,0,0,1,3.1,2.17,9.22,9.22,0,0,1,2,3.14,10.52,10.52,0,0,1,0,7.39,9.17,9.17,0,0,1-2,3.13,9.46,9.46,0,0,1-3.1,2.17A10,10,0,0,1,214.63,68Zm0-3.9a5.13,5.13,0,0,0,2.29-.49,5.24,5.24,0,0,0,1.72-1.32,5.89,5.89,0,0,0,1.08-1.89,6.65,6.65,0,0,0,0-4.43,6,6,0,0,0-1.08-1.9,5.12,5.12,0,0,0-4-1.81,5.32,5.32,0,0,0-2.3.49A5.45,5.45,0,0,0,210.61,54a6,6,0,0,0-1.08,1.9,6.82,6.82,0,0,0,0,4.43,5.89,5.89,0,0,0,1.08,1.89,5.45,5.45,0,0,0,1.72,1.32A5.18,5.18,0,0,0,214.63,64.07Z"/><path class="cls-2" d="M233.63,52.44v5.05H240V61h-6.4v6.46H229.3V48.82h12.06v3.62Z"/><path class="cls-2" d="M149.54,52.28v4.25h6.89v3.38h-6.89V64h7.4v3.47H145.33V48.82h11.61v3.46Z"/><path class="cls-2" d="M183.86,52.55h-4.62V48.82h13.48v3.73h-4.65V67.49h-4.21Z"/></g></g></svg>