<svg xmlns="http://www.w3.org/2000/svg" viewBox="0 0 300 250"><defs><style>.cls-1{fill:none;}.cls-2{fill:#fff;}</style></defs><title>txt5b</title><g id="Layer_2" data-name="Layer 2"><g id="txt5b"><rect class="cls-1" width="300" height="250"/><path class="cls-2" d="M128.17,80.25v4h7.69s0,0,0,.06L128.17,97.4a1.22,1.22,0,0,0-.23.75v.77h15V95H134.6a0,0,0,0,1,0-.06l7.81-13.29a1,1,0,0,0,.13-.54v-.83Z"/><path class="cls-2" d="M147.53,80.25h4.38V98.92h-4.38Z"/><path class="cls-2" d="M182.9,95.19v3.73H172.3V80.25h4.32V95.19Z"/><path class="cls-2" d="M168.16,95.19v3.73h-10.6V80.25h4.32V95.19Z"/><path class="cls-2" d="M195.09,99.4a10.22,10.22,0,0,1-4.16-.81,9.27,9.27,0,0,1-5.07-5.31,10.65,10.65,0,0,1,0-7.38,9.27,9.27,0,0,1,5.07-5.31,10.94,10.94,0,0,1,8.31,0,9.36,9.36,0,0,1,3.1,2.17,9.12,9.12,0,0,1,1.95,3.14,10.5,10.5,0,0,1,0,7.38,9.12,9.12,0,0,1-1.95,3.14,9.5,9.5,0,0,1-3.1,2.17A10.14,10.14,0,0,1,195.09,99.4Zm0-3.89a5.13,5.13,0,0,0,2.29-.49,5.24,5.24,0,0,0,1.72-1.32,5.59,5.59,0,0,0,1.08-1.9,6.62,6.62,0,0,0,0-4.42,5.49,5.49,0,0,0-1.08-1.9,5.24,5.24,0,0,0-1.72-1.32,5.6,5.6,0,0,0-4.58,0,5.24,5.24,0,0,0-1.72,1.32,5.66,5.66,0,0,0-1.08,1.9,6.62,6.62,0,0,0,0,4.42,5.76,5.76,0,0,0,1.08,1.9A5.24,5.24,0,0,0,192.8,95,5.13,5.13,0,0,0,195.09,95.51Z"/><path class="cls-2" d="M220.75,87.19,217,98.92h-3.55l-6.58-18.67h4.56l3.81,12.25,3.79-12.25h3.33l3.82,12.25L230,80.25h4.56L228,98.92h-3.52Z"/></g></g></svg>