<svg xmlns="http://www.w3.org/2000/svg" viewBox="0 0 300 250"><defs><style>.cls-1{fill:none;}.cls-2{fill:#fff;}</style></defs><title>txt6</title><g id="Layer_2" data-name="Layer 2"><g id="txt6"><rect class="cls-1" width="300" height="250"/><path class="cls-2" d="M46.64,145.93h1.81l2.49,7.63,2.36-7.63h1.27l2.36,7.63,2.49-7.63h1.81l-3.63,10.5H56.36l-2.42-7.49-2.43,7.49H50.27Z"/><path class="cls-2" d="M60.78,152.93a3.69,3.69,0,1,1,3.69,3.68A3.51,3.51,0,0,1,60.78,152.93Zm5.75,0a2.06,2.06,0,1,0-2.06,2.22A2,2,0,0,0,66.53,152.93Z"/><path class="cls-2" d="M69.74,149.44h1.63v1.35a1.89,1.89,0,0,1,1.86-1.44,2.48,2.48,0,0,1,.65.06v1.5a4.72,4.72,0,0,0-.65,0c-1.15,0-1.86.87-1.86,2.46v3.09H69.74Z"/><path class="cls-2" d="M78.54,152.78l3,3.65H79.43l-2.58-3.2v3.2H75.23v-10.5h1.62v6.58l2.65-3.07h2.07Z"/><path class="cls-2" d="M85.77,149.44h1.8L89,154.06l1.51-4.62h1.77l1.52,4.62,1.45-4.62h1.8l-2.58,7H93.12l-1.69-5-1.7,5H88.35Z"/><path class="cls-2" d="M97.8,147.22A1.22,1.22,0,1,1,99,148.43,1.19,1.19,0,0,1,97.8,147.22Zm.41,2.22h1.62v7H98.21Z"/><path class="cls-2" d="M105.92,155v1.44a8.75,8.75,0,0,1-1.22.09c-.79,0-2.26-.11-2.26-2.46V150.8h-1.19v-1.36h1.19v-2.12h1.63v2.12h1.61v1.36h-1.61v2.88c0,1.22.38,1.37,1,1.37A6.31,6.31,0,0,0,105.92,155Z"/><path class="cls-2" d="M113.88,152v4.4h-1.63v-3.65c0-1.48-.39-2.13-1.53-2.13s-1.67.71-1.67,1.94v3.84h-1.63v-10.5h1.63v4.48a2.49,2.49,0,0,1,2.28-1.15C113,149.26,113.88,150.2,113.88,152Z"/><path class="cls-2" d="M123.65,155v1.44a8.75,8.75,0,0,1-1.22.09c-.79,0-2.26-.11-2.26-2.46V150.8H119v-1.36h1.19v-2.12h1.63v2.12h1.61v1.36H121.8v2.88c0,1.22.38,1.37,1,1.37A6.31,6.31,0,0,0,123.65,155Z"/><path class="cls-2" d="M131.61,152v4.4H130v-3.65c0-1.48-.39-2.13-1.54-2.13s-1.66.71-1.66,1.94v3.84h-1.63v-10.5h1.63v4.48a2.48,2.48,0,0,1,2.28-1.15C130.74,149.26,131.61,150.2,131.61,152Z"/><path class="cls-2" d="M139.92,153.47h-5.19a1.71,1.71,0,0,0,2,1.71,1.53,1.53,0,0,0,1.56-.79h1.65a3,3,0,0,1-3.21,2.22,3.68,3.68,0,0,1-.06-7.35,3.17,3.17,0,0,1,3.35,3.31C140,152.86,140,153.08,139.92,153.47Zm-1.56-1.24a1.57,1.57,0,0,0-1.77-1.68,1.68,1.68,0,0,0-1.86,1.68Z"/><path class="cls-2" d="M152.6,152.93a3.41,3.41,0,0,1-3.44,3.68,2.71,2.71,0,0,1-2.25-1.13v1h-1.62v-10.5h1.62v4.45a2.85,2.85,0,0,1,2.36-1.12C151.26,149.26,152.6,150.73,152.6,152.93Zm-1.64,0a2.06,2.06,0,1,0-2,2.22A2,2,0,0,0,151,152.93Z"/><path class="cls-2" d="M160.46,153.47h-5.19a1.71,1.71,0,0,0,1.95,1.71,1.5,1.5,0,0,0,1.55-.79h1.66a3,3,0,0,1-3.21,2.22,3.68,3.68,0,0,1-.06-7.35,3.16,3.16,0,0,1,3.34,3.31C160.5,152.86,160.48,153.08,160.46,153.47Zm-1.56-1.24a1.58,1.58,0,0,0-1.77-1.68,1.67,1.67,0,0,0-1.86,1.68Z"/><path class="cls-2" d="M161.55,154.28h1.64c0,.6.58,1,1.42,1,.62,0,1-.33,1-.82s-.16-.63-.91-.83l-1.39-.37a1.94,1.94,0,0,1-1.54-2c0-1.18,1.13-2.05,2.69-2.05s2.76.82,2.76,2.17h-1.61c0-.58-.45-.93-1.21-.93-.59,0-1,.3-1,.72s.22.63.87.81l1.39.41a2,2,0,0,1,1.62,2c0,1.37-1.07,2.18-2.76,2.18S161.55,155.62,161.55,154.28Z"/><path class="cls-2" d="M172.77,155v1.44a8.59,8.59,0,0,1-1.21.09c-.8,0-2.27-.11-2.27-2.46V150.8H168.1v-1.36h1.19v-2.12h1.64v2.12h1.6v1.36h-1.6v2.88c0,1.22.37,1.37,1,1.37A6.31,6.31,0,0,0,172.77,155Z"/><path class="cls-2" d="M177.5,152.93a3.69,3.69,0,1,1,3.69,3.68A3.51,3.51,0,0,1,177.5,152.93Zm5.74,0a2.06,2.06,0,1,0-2.05,2.22A2,2,0,0,0,183.24,152.93Z"/><path class="cls-2" d="M188.61,148.39v1.05h1.83v1.36h-1.83v5.63H187V150.8h-1.43v-1.36H187v-1a2.29,2.29,0,0,1,2.37-2.58,3.8,3.8,0,0,1,1.09.13v1.38c-.22,0-.4-.06-.64-.06C189.3,147.29,188.61,147.37,188.61,148.39Z"/><path class="cls-2" d="M199.45,155v1.44a8.46,8.46,0,0,1-1.21.09c-.8,0-2.27-.11-2.27-2.46V150.8h-1.18v-1.36H196v-2.12h1.64v2.12h1.6v1.36h-1.6v2.88c0,1.22.37,1.37,1,1.37A6.14,6.14,0,0,0,199.45,155Z"/><path class="cls-2" d="M207.42,152v4.4h-1.64v-3.65c0-1.48-.38-2.13-1.53-2.13s-1.66.71-1.66,1.94v3.84H201v-10.5h1.64v4.48a2.47,2.47,0,0,1,2.28-1.15C206.55,149.26,207.42,150.2,207.42,152Z"/><path class="cls-2" d="M215.73,153.47h-5.19a1.71,1.71,0,0,0,2,1.71,1.53,1.53,0,0,0,1.56-.79h1.65a3,3,0,0,1-3.21,2.22,3.68,3.68,0,0,1-.06-7.35,3.16,3.16,0,0,1,3.34,3.31C215.77,152.86,215.76,153.08,215.73,153.47Zm-1.56-1.24a1.58,1.58,0,0,0-1.77-1.68,1.68,1.68,0,0,0-1.86,1.68Z"/><path class="cls-2" d="M228.4,152.93a3.41,3.41,0,0,1-3.43,3.68,2.69,2.69,0,0,1-2.25-1.13v1H221.1v-10.5h1.62v4.45a2.82,2.82,0,0,1,2.35-1.12C227.07,149.26,228.4,150.73,228.4,152.93Zm-1.63,0a2.06,2.06,0,1,0-2,2.22A2,2,0,0,0,226.77,152.93Z"/><path class="cls-2" d="M236.26,153.47h-5.19a1.71,1.71,0,0,0,2,1.71,1.53,1.53,0,0,0,1.56-.79h1.65a3,3,0,0,1-3.21,2.22,3.68,3.68,0,0,1-.06-7.35,3.17,3.17,0,0,1,3.35,3.31C236.31,152.86,236.29,153.08,236.26,153.47Zm-1.56-1.24a1.57,1.57,0,0,0-1.77-1.68,1.68,1.68,0,0,0-1.86,1.68Z"/><path class="cls-2" d="M237.36,154.28H239c0,.6.59,1,1.43,1,.61,0,1-.33,1-.82s-.16-.63-.91-.83l-1.4-.37a1.94,1.94,0,0,1-1.53-2c0-1.18,1.13-2.05,2.69-2.05s2.76.82,2.76,2.17h-1.61c0-.58-.45-.93-1.21-.93-.59,0-1,.3-1,.72s.23.63.87.81l1.4.41a2,2,0,0,1,1.62,2c0,1.37-1.07,2.18-2.76,2.18S237.36,155.62,237.36,154.28Z"/><path class="cls-2" d="M248.58,155v1.44a8.75,8.75,0,0,1-1.22.09c-.79,0-2.26-.11-2.26-2.46V150.8h-1.19v-1.36h1.19v-2.12h1.63v2.12h1.61v1.36h-1.61v2.88c0,1.22.38,1.37,1,1.37A6.31,6.31,0,0,0,248.58,155Z"/><path class="cls-2" d="M249.93,155.27a1.27,1.27,0,0,1,2.53,0,1.27,1.27,0,1,1-2.53,0Z"/></g></g></svg>