<svg xmlns="http://www.w3.org/2000/svg" viewBox="0 0 728 90"><title>bg</title><g id="Layer_2" data-name="Layer 2"><g id="Layer_4" data-name="Layer 4"><path d="M157.5,90h455V60.34C360,8.82,236,40.51,157.5,90Z" fill="#001751"/><path d="M220,90H728V0H346.68C289.11,24.16,252.52,58.62,220,90Z" fill="#006aff"/><polygon points="363 23 360 21 357 23 357 90 363 90 363 23" fill="#fff"/><polygon points="316 27 363 27 363 33 316 33 314 30 316 27" fill="#fff"/><rect x="316" y="36" width="38" height="28" fill="#f2a619"/><rect x="316" y="67" width="38" height="10" fill="#fff"/><path d="M349.43,61H320.57A1.57,1.57,0,0,1,319,59.43V54.57A1.57,1.57,0,0,1,320.57,53h28.86A1.57,1.57,0,0,1,351,54.57v4.86A1.57,1.57,0,0,1,349.43,61ZM320,54.53v4.94a.53.53,0,0,0,.53.53h28.94a.53.53,0,0,0,.53-.53V54.53a.53.53,0,0,0-.53-.53H320.53A.53.53,0,0,0,320,54.53Z" fill="#fff"/><path d="M677.69,41.77h4.89L684,46.38c.47,1.52,1.26,4.39,1.26,4.39s.06,0,.07,0,.82-2.92,1.29-4.39l1.48-4.61h3.61l1.46,4.61c.49,1.57,1.25,4.38,1.25,4.38a0,0,0,0,0,.07,0s.8-2.84,1.26-4.38l1.42-4.61h4.54L696.79,57h-4.47l-1.21-3.82c-.47-1.5-1.29-4.41-1.29-4.41a0,0,0,0,0-.07,0s-.83,2.85-1.32,4.38L687.19,57h-4.55Z" fill="#fff"/><rect x="644.82" y="33.73" width="4.94" height="23.26" fill="#fff"/><rect x="653.42" y="33.73" width="4.94" height="23.26" fill="#fff"/><path d="M672.69,49.43a3.58,3.58,0,1,0-3.55,3.81,3.61,3.61,0,0,0,3.55-3.81m-11.88,0a8.31,8.31,0,1,1,8.33,8.07,8.1,8.1,0,0,1-8.33-8.07" fill="#fff"/><path d="M616.23,35.88v4.49H625s0,0,0,.06l-8.77,14.84a1.33,1.33,0,0,0-.26.85V57h17V52.52h-9.45s0,0,0-.07l8.87-15a1,1,0,0,0,.15-.6v-.94Z" fill="#fff"/><path d="M636.13,41.77h4.94V57h-4.94Zm2.47-7.62a2.76,2.76,0,1,1-2.82,2.76,2.8,2.8,0,0,1,2.82-2.76" fill="#fff"/><path d="M600.87,39.11a.2.2,0,0,1,.23.08c.38.44,1.6,1.94,1.93,2.35a.14.14,0,0,1,0,.2,43.6,43.6,0,0,0-6.71,6.66s0,.05,0,0A76,76,0,0,1,608,44.91V41l-11-9-11,9v4.25A76.33,76.33,0,0,1,600.87,39.11Z" fill="#fff"/><path d="M591.93,54.25a.18.18,0,0,1-.24,0l-2.05-2.48c-.06-.07-.06-.1,0-.21A39,39,0,0,1,596.54,44s0-.06,0,0A89.33,89.33,0,0,0,586,48.58V57h22V48.9A79.81,79.81,0,0,0,591.93,54.25Z" fill="#fff"/><path d="M705,39.6a.71.71,0,0,0-.73-.74h-.79V41h.36v-.63h.34l.39.63h.4l-.42-.68A.73.73,0,0,0,705,39.6Zm-.75.43h-.41v-.86h.41a.43.43,0,0,1,0,.86Z" fill="#fff"/><path d="M704.16,38.12A1.84,1.84,0,1,0,706,40,1.84,1.84,0,0,0,704.16,38.12Zm0,3.32A1.49,1.49,0,1,1,705.65,40,1.49,1.49,0,0,1,704.16,41.44Z" fill="#fff"/><rect width="728" height="90" fill="none"/></g></g></svg>