<svg xmlns="http://www.w3.org/2000/svg" viewBox="0 0 728 90"><title>cta</title><g id="Layer_2" data-name="Layer 2"><g id="Layer_30" data-name="Layer 30"><path d="M666.84,28h-83a2.53,2.53,0,0,0-2.62,2.43V59.57A2.53,2.53,0,0,0,583.84,62H688.59a2.54,2.54,0,0,0,2.63-2.43V30.43A2.54,2.54,0,0,0,688.59,28Z" fill="none" stroke="#fff" stroke-miterlimit="10" stroke-width="1.21"/><path d="M601.73,40.21h1.61V48.5h3.94V50h-5.55Z" fill="#fff"/><path d="M614.4,47.26h-4.84a1.59,1.59,0,0,0,1.82,1.59,1.41,1.41,0,0,0,1.45-.74h1.55a2.8,2.8,0,0,1-3,2.07A3.14,3.14,0,0,1,608,46.75a3.15,3.15,0,0,1,3.28-3.43,3,3,0,0,1,3.13,3.1C614.45,46.68,614.43,46.89,614.4,47.26ZM613,46.09a1.47,1.47,0,0,0-1.66-1.56,1.56,1.56,0,0,0-1.73,1.56Z" fill="#fff"/><path d="M615.42,46.75a3.19,3.19,0,0,1,3.25-3.43,2.37,2.37,0,0,1,2.06,1v-.88h1.51V50h-1.51v-.89a2.53,2.53,0,0,1-2.1,1A3.12,3.12,0,0,1,615.42,46.75Zm5.37,0a1.93,1.93,0,1,0-1.94,2.08A1.88,1.88,0,0,0,620.79,46.75Z" fill="#fff"/><path d="M624.2,43.49h1.53v1.26a1.76,1.76,0,0,1,1.73-1.34,2.73,2.73,0,0,1,.61.05v1.4a4.16,4.16,0,0,0-.61,0c-1.07,0-1.73.82-1.73,2.3V50H624.2Z" fill="#fff"/><path d="M629.32,43.49h1.53v.91A2.32,2.32,0,0,1,633,43.32c1.57,0,2.38.88,2.38,2.59V50h-1.53V46.61c0-1.38-.36-2-1.42-2s-1.56.66-1.56,1.81V50h-1.53Z" fill="#fff"/><path d="M640.75,43.49h1.53v.91a2,2,0,0,1,1.82-1.08,2,2,0,0,1,2.06,1.16,2.18,2.18,0,0,1,2-1.16c2,0,2.35,1.35,2.35,2.56V50H649V46.18c0-1.08-.42-1.56-1.22-1.56s-1.38.38-1.38,1.94V50h-1.52V46.17c0-1.08-.4-1.55-1.19-1.55s-1.4.38-1.4,1.94V50h-1.53Z" fill="#fff"/><path d="M651.91,46.75a3.45,3.45,0,1,1,3.44,3.43A3.27,3.27,0,0,1,651.91,46.75Zm5.36,0a1.93,1.93,0,1,0-1.92,2.08A1.87,1.87,0,0,0,657.27,46.75Z" fill="#fff"/><path d="M660.26,43.49h1.53v1.26a1.76,1.76,0,0,1,1.74-1.34,2.64,2.64,0,0,1,.6.05v1.4a4,4,0,0,0-.6,0c-1.08,0-1.74.82-1.74,2.3V50h-1.53Z" fill="#fff"/><path d="M671.05,47.26H666.2A1.6,1.6,0,0,0,668,48.85a1.42,1.42,0,0,0,1.46-.74H671a2.8,2.8,0,0,1-3,2.07,3.13,3.13,0,0,1-3.33-3.43A3.15,3.15,0,0,1,668,43.32a3,3,0,0,1,3.12,3.1C671.09,46.68,671.08,46.89,671.05,47.26Zm-1.46-1.17a1.46,1.46,0,0,0-1.65-1.56,1.56,1.56,0,0,0-1.74,1.56Z" fill="#fff"/><rect width="728" height="90" fill="none"/></g></g></svg>