<svg xmlns="http://www.w3.org/2000/svg" viewBox="0 0 728 90"><title>txt1a</title><g id="Layer_2" data-name="Layer 2"><g id="Layer_20_copy" data-name="Layer 20 copy"><path d="M381.57,20.16h4.21v18.2h-4.21Z" fill="#fff"/><path d="M389.18,25.83h4v1.81a4.26,4.26,0,0,1,4.06-2.15c3,0,4.57,1.71,4.57,5.12v7.75h-4V31.91c0-2.11-.6-3.07-2.21-3.07s-2.42,1-2.42,3v6.56h-4Z" fill="#fff"/><path d="M412.69,35.19v3.17a15.9,15.9,0,0,1-2.65.21c-1.88,0-4.45-.42-4.45-4.61V29h-2V25.83h2V22.11h4v3.72h2.83V29h-2.83v4.16c0,1.85.75,2.13,1.74,2.13A11.89,11.89,0,0,0,412.69,35.19Z" fill="#fff"/><path d="M415,25.83h4v2.62a3.52,3.52,0,0,1,3.46-2.83,3.81,3.81,0,0,1,1,.1v3.69a9.26,9.26,0,0,0-1.19-.08c-2.16,0-3.31,1.41-3.31,4.19v4.84h-4Z" fill="#fff"/><path d="M424.52,32.09c0-3.82,2.65-6.6,7-6.6s6.94,2.78,6.94,6.6-2.65,6.61-6.94,6.61S424.52,35.91,424.52,32.09Zm10,0a3,3,0,1,0-6,0,3,3,0,1,0,6,0Z" fill="#fff"/><path d="M453.85,20.16v18.2h-4V36.59a4.48,4.48,0,0,1-4,2.11c-3.75,0-5.91-2.84-5.91-6.61s2.32-6.6,6-6.6a4.26,4.26,0,0,1,3.92,2.13V20.16Zm-3.8,11.93c0-1.79-1-3.28-3-3.28a3,3,0,0,0-3,3.28,3,3,0,0,0,3,3.3C449,35.39,450.05,33.91,450.05,32.09Z" fill="#fff"/><path d="M457,33.57V25.83h4v6.86c0,1.72.57,2.65,2.08,2.65,1.69,0,2.41-1.09,2.41-2.78V25.83h4V38.36h-4v-1.8a4.09,4.09,0,0,1-3.89,2.14C458.63,38.7,457,36.82,457,33.57Z" fill="#fff"/><path d="M471.81,32.09c0-4,2.57-6.6,6.71-6.6,3.74,0,6.19,2,6.5,5.09h-4c-.29-1.17-1-1.71-2.5-1.71-1.71,0-2.75,1.14-2.75,3.22s1,3.23,2.75,3.23c1.46,0,2.21-.53,2.5-1.62h4c-.31,3-2.76,5-6.5,5C474.38,38.7,471.81,36,471.81,32.09Z" fill="#fff"/><path d="M486.84,22.31a2.39,2.39,0,0,1,2.44-2.44,2.43,2.43,0,1,1,0,4.86A2.38,2.38,0,0,1,486.84,22.31Zm.47,3.52h3.95V38.36h-3.95Z" fill="#fff"/><path d="M494.56,25.83h4v1.81a4.26,4.26,0,0,1,4-2.15q4.57,0,4.58,5.12v7.75h-4V31.91c0-2.11-.6-3.07-2.21-3.07s-2.42,1-2.42,3v6.56h-4Z" fill="#fff"/><path d="M523.29,25.83V37.55a6.14,6.14,0,0,1-2.42,5.28A7.64,7.64,0,0,1,516.4,44a8.67,8.67,0,0,1-4.52-1,4.5,4.5,0,0,1-2.24-3.48h4.06c.18,1,1,1.59,2.65,1.59,1.84,0,3-.81,3-3V36.33a4.41,4.41,0,0,1-3.92,2c-3.72,0-6-2.71-6-6.4s2.39-6.47,6-6.47a4.21,4.21,0,0,1,3.87,2.13V25.83ZM519.5,32a3,3,0,1,0-6,0,3,3,0,1,0,6,0Z" fill="#fff"/><rect width="728" height="90" fill="none"/></g></g></svg>