<svg xmlns="http://www.w3.org/2000/svg" viewBox="0 0 728 90"><title>txt1b</title><g id="Layer_2" data-name="Layer 2"><g id="Layer_20" data-name="Layer 20"><path d="M395.16,60.31c0,3.12-2.21,5-5.82,5h-7.77V47.16h7.48c3.62,0,5.85,1.79,5.85,4.73a3.94,3.94,0,0,1-3.48,4.16A4,4,0,0,1,395.16,60.31ZM385.78,50.2v4.42h2.34c1.61,0,2.57-.83,2.57-2.21s-.93-2.21-2.57-2.21Zm5.15,9.57a2.27,2.27,0,0,0-2.53-2.24h-2.62v4.63h2.62A2.27,2.27,0,0,0,390.93,59.77Z" fill="#fff"/><path d="M410.3,60.18H401c.08,1.64,1.17,2.53,2.94,2.53,1.22,0,2-.34,2.34-1.12h3.9c-.39,2.47-2.91,4.11-6.24,4.11-4.27,0-6.89-2.42-6.89-6.61s2.68-6.6,6.76-6.6c3.9,0,6.55,2.42,6.55,5.95A15.11,15.11,0,0,1,410.3,60.18Zm-3.83-2.47a2.35,2.35,0,0,0-2.65-2.54A2.51,2.51,0,0,0,401,57.71Z" fill="#fff"/><path d="M411.83,61.59h3.95c0,.86.83,1.45,2.05,1.45.86,0,1.46-.41,1.46-1.14,0-.57-.29-.91-1.35-1.17l-2.63-.65a3.65,3.65,0,0,1-3.14-3.67c0-2.36,2.13-3.92,5.35-3.92,3.54,0,5.59,1.38,5.59,3.87h-3.92c0-.88-.65-1.35-1.72-1.35-.86,0-1.43.41-1.43,1s.37.94,1.38,1.2l2.65.73c2,.52,3.17,1.71,3.17,3.61,0,2.6-2.16,4.14-5.48,4.14C414.2,65.7,411.83,64,411.83,61.59Z" fill="#fff"/><path d="M433.49,62.19v3.17a15.9,15.9,0,0,1-2.65.21c-1.88,0-4.45-.42-4.45-4.61V56h-2V52.83h2V49.11h4v3.72h2.83V56h-2.83v4.16c0,1.85.75,2.13,1.74,2.13A11.89,11.89,0,0,0,433.49,62.19Z" fill="#fff"/><path d="M441.1,59.09c0-3.82,2.66-6.6,7-6.6s6.95,2.78,6.95,6.6-2.66,6.61-6.95,6.61S441.1,62.91,441.1,59.09Zm10,0a3,3,0,1,0-6,0,3,3,0,1,0,6,0Z" fill="#fff"/><path d="M462.11,51.55v1.28H465V56h-2.92v9.39h-4V56H455.9V52.83h2.23V51.6c0-3.85,2.74-4.68,4.61-4.68a7.56,7.56,0,0,1,2.29.29V50c-.42,0-.73-.08-1.1-.08C463.08,50,462.11,50.17,462.11,51.55Z" fill="#fff"/><path d="M480.65,50.69h-7.51V47.16h14.19l-8.55,14.66h8.09v3.54H472Z" fill="#fff"/><path d="M489,49.31a2.46,2.46,0,1,1,2.45,2.42A2.39,2.39,0,0,1,489,49.31Zm.47,3.52h3.95V65.36h-3.95Z" fill="#fff"/><path d="M496.69,47.16h4v18.2h-4Z" fill="#fff"/><path d="M504,47.16h4v18.2h-4Z" fill="#fff"/><path d="M510.21,59.09c0-3.82,2.65-6.6,7-6.6s6.94,2.78,6.94,6.6-2.65,6.61-6.94,6.61S510.21,62.91,510.21,59.09Zm10,0a3,3,0,1,0-6,0,3,3,0,1,0,6,0Z" fill="#fff"/><path d="M524.33,52.83h4.16l2.26,7.59,2.13-7.59h3.88l2.13,7.59,2.26-7.59h4.14l-4.5,12.53h-3.56l-2.42-7.62-2.39,7.62h-3.57Z" fill="#fff"/><path d="M545.57,63.07a2.58,2.58,0,1,1,2.58,2.55A2.55,2.55,0,0,1,545.57,63.07Z" fill="#fff"/><rect width="728" height="90" fill="none"/></g></g></svg>