<svg xmlns="http://www.w3.org/2000/svg" viewBox="0 0 728 90"><title>txt2b</title><g id="Layer_2" data-name="Layer 2"><g id="Layer_22" data-name="Layer 22"><path d="M381.79,59.09c0-3.74,2.32-6.6,6-6.6a4.26,4.26,0,0,1,3.92,2.13V52.83h4V65.36h-4V63.59a4.48,4.48,0,0,1-4,2.11C384,65.7,381.79,62.86,381.79,59.09Zm10,0c0-1.79-1-3.28-3-3.28a3,3,0,0,0-3,3.28,3,3,0,0,0,3,3.3C390.82,62.39,391.83,60.91,391.83,59.09Z" fill="#fff"/><path d="M411.88,52.83V64.55a6.17,6.17,0,0,1-2.42,5.28A7.66,7.66,0,0,1,405,71a8.68,8.68,0,0,1-4.53-1,4.51,4.51,0,0,1-2.23-3.48h4c.18,1,1,1.59,2.65,1.59,1.85,0,3-.81,3-3.05V63.33a4.43,4.43,0,0,1-3.93,2c-3.72,0-6-2.71-6-6.4s2.39-6.47,6-6.47a4.23,4.23,0,0,1,3.88,2.13V52.83ZM408.08,59a3,3,0,1,0-3,3.28A3,3,0,0,0,408.08,59Z" fill="#fff"/><path d="M427.37,60.18h-9.25c.07,1.64,1.17,2.53,2.93,2.53,1.23,0,2-.34,2.34-1.12h3.9c-.39,2.47-2.91,4.11-6.24,4.11-4.26,0-6.89-2.42-6.89-6.61s2.68-6.6,6.76-6.6c3.9,0,6.56,2.42,6.56,5.95A13.22,13.22,0,0,1,427.37,60.18Zm-3.82-2.47a2.35,2.35,0,0,0-2.65-2.54,2.5,2.5,0,0,0-2.78,2.54Z" fill="#fff"/><path d="M429.76,52.83h4v1.81a4.26,4.26,0,0,1,4.06-2.15c3,0,4.57,1.71,4.57,5.12v7.75h-4V58.91c0-2.11-.6-3.07-2.21-3.07s-2.42,1-2.42,3v6.56h-4Z" fill="#fff"/><path d="M453.27,62.19v3.17a15.9,15.9,0,0,1-2.65.21c-1.88,0-4.45-.42-4.45-4.61V56h-2V52.83h2V49.11h4v3.72H453V56h-2.83v4.16c0,1.85.75,2.13,1.74,2.13A11.89,11.89,0,0,0,453.27,62.19Z" fill="#fff"/><path d="M454.57,61.59h3.95c0,.86.83,1.45,2.05,1.45.86,0,1.46-.41,1.46-1.14,0-.57-.29-.91-1.35-1.17l-2.63-.65a3.65,3.65,0,0,1-3.14-3.67c0-2.36,2.13-3.92,5.35-3.92,3.54,0,5.59,1.38,5.59,3.87h-3.92c0-.88-.65-1.35-1.72-1.35-.86,0-1.43.41-1.43,1s.36.94,1.38,1.2l2.65.73c2,.52,3.17,1.71,3.17,3.61,0,2.6-2.16,4.14-5.48,4.14C456.93,65.7,454.57,64,454.57,61.59Z" fill="#fff"/><path d="M467.85,63.07a2.58,2.58,0,1,1,2.58,2.55A2.55,2.55,0,0,1,467.85,63.07Z" fill="#fff"/><rect width="728" height="90" fill="none"/></g></g></svg>