<svg xmlns="http://www.w3.org/2000/svg" viewBox="0 0 728 90"><title>txt2a</title><g id="Layer_2" data-name="Layer 2"><g id="Layer_22_copy" data-name="Layer 22 copy"><path d="M386.19,23.9h-5V20.16h14.19V23.9h-5V38.36h-4.18Z" fill="#fff"/><path d="M394.53,32.09c0-3.82,2.66-6.6,7-6.6s6.95,2.78,6.95,6.6-2.66,6.61-6.95,6.61S394.53,35.91,394.53,32.09Zm10,0a3,3,0,1,0-6,0,3,3,0,1,0,6,0Z" fill="#fff"/><path d="M424.56,32.09c0,3.93-2.41,6.61-5.87,6.61a4.56,4.56,0,0,1-4-2.11v7h-3.95V25.83h3.95v1.79a4.71,4.71,0,0,1,4.11-2.13C422.22,25.49,424.56,28.14,424.56,32.09Zm-4.05,0a3,3,0,1,0-6,0,3,3,0,1,0,6,0Z" fill="#fff"/><path d="M426.49,29.57h8.24v3.17h-8.24Z" fill="#fff"/><path d="M437.54,25.83h4v2.62A3.5,3.5,0,0,1,445,25.62a3.81,3.81,0,0,1,1,.1v3.69a9.14,9.14,0,0,0-1.19-.08c-2.16,0-3.3,1.41-3.3,4.19v4.84h-4Z" fill="#fff"/><path d="M446.9,32.09c0-3.74,2.31-6.6,6-6.6a4.29,4.29,0,0,1,3.93,2.13V25.83h4V38.36h-4V36.59a4.51,4.51,0,0,1-4,2.11C449.06,38.7,446.9,35.86,446.9,32.09Zm10,0a3,3,0,1,0-6,0,3,3,0,0,0,3,3.3C455.92,35.39,456.94,33.91,456.94,32.09Z" fill="#fff"/><path d="M472,35.19v3.17a15.9,15.9,0,0,1-2.65.21c-1.88,0-4.45-.42-4.45-4.61V29h-2V25.83h2V22.11h4v3.72h2.83V29h-2.83v4.16c0,1.85.75,2.13,1.74,2.13A11.89,11.89,0,0,0,472,35.19Z" fill="#fff"/><path d="M486.5,33.18h-9.26c.08,1.64,1.17,2.53,2.94,2.53,1.22,0,2-.34,2.34-1.12h3.9c-.39,2.47-2.91,4.11-6.24,4.11-4.27,0-6.89-2.42-6.89-6.61s2.68-6.6,6.76-6.6c3.9,0,6.55,2.42,6.55,6A15.11,15.11,0,0,1,486.5,33.18Zm-3.83-2.47A2.35,2.35,0,0,0,480,28.17a2.51,2.51,0,0,0-2.78,2.54Z" fill="#fff"/><path d="M502,20.16v18.2h-3.95V36.59a4.51,4.51,0,0,1-4,2.11c-3.75,0-5.9-2.84-5.9-6.61s2.31-6.6,5.95-6.6a4.29,4.29,0,0,1,3.93,2.13V20.16Zm-3.8,11.93c0-1.79-1-3.28-3-3.28a3,3,0,0,0-3,3.28,3,3,0,0,0,3,3.3C497.21,35.39,498.22,33.91,498.22,32.09Z" fill="#fff"/><rect width="728" height="90" fill="none"/></g></g></svg>