<svg xmlns="http://www.w3.org/2000/svg" viewBox="0 0 728 90"><title>txt3a</title><g id="Layer_2" data-name="Layer 2"><g id="Layer_24_copy" data-name="Layer 24 copy"><path d="M393.7,32.58l3.2,5.78h-4.78l-2.86-5h-2.21v5h-4.22V20.16h7.75a6.32,6.32,0,0,1,6.53,6.57A6.33,6.33,0,0,1,393.7,32.58Zm-6.65-2.7h2.88a2.94,2.94,0,0,0,2.91-3.15,2.93,2.93,0,0,0-2.91-3.14h-2.88Z" fill="#fff"/><path d="M398.43,32.09c0-3.74,2.32-6.6,6-6.6a4.26,4.26,0,0,1,3.92,2.13V25.83h4V38.36h-4V36.59a4.48,4.48,0,0,1-4,2.11C400.59,38.7,398.43,35.86,398.43,32.09Zm10,0c0-1.79-1-3.28-3-3.28a3,3,0,0,0-3,3.28,3,3,0,0,0,3,3.3C407.46,35.39,408.47,33.91,408.47,32.09Z" fill="#fff"/><path d="M415.57,25.83h4v1.81a4.24,4.24,0,0,1,4.05-2.15c3,0,4.58,1.71,4.58,5.12v7.75h-4V31.91c0-2.11-.59-3.07-2.21-3.07s-2.41,1-2.41,3v6.56h-4Z" fill="#fff"/><path d="M439.31,38.36l-4-5.46v5.46h-3.95V20.16h3.95V31.1l4.11-5.27h4.68l-5,5.92,5.07,6.61Z" fill="#fff"/><path d="M457.12,33.18h-9.26c.08,1.64,1.17,2.53,2.94,2.53,1.22,0,2-.34,2.34-1.12H457c-.39,2.47-2.91,4.11-6.24,4.11-4.27,0-6.89-2.42-6.89-6.61s2.68-6.6,6.76-6.6c3.9,0,6.55,2.42,6.55,6A15.11,15.11,0,0,1,457.12,33.18Zm-3.83-2.47a2.35,2.35,0,0,0-2.65-2.54,2.51,2.51,0,0,0-2.78,2.54Z" fill="#fff"/><path d="M472.64,20.16v18.2h-3.95V36.59a4.51,4.51,0,0,1-4,2.11c-3.75,0-5.9-2.84-5.9-6.61s2.31-6.6,5.95-6.6a4.29,4.29,0,0,1,3.93,2.13V20.16Zm-3.8,11.93c0-1.79-1-3.28-3-3.28a3,3,0,0,0-3,3.28,3,3,0,0,0,3,3.3C467.83,35.39,468.84,33.91,468.84,32.09Z" fill="#fff"/><rect width="728" height="90" fill="none"/></g></g></svg>