<svg xmlns="http://www.w3.org/2000/svg" viewBox="0 0 728 90"><title>txt3b</title><g id="Layer_2" data-name="Layer 2"><g id="Layer_24" data-name="Layer 24"><path d="M396.54,59.09c0,3.93-2.42,6.61-5.88,6.61a4.55,4.55,0,0,1-4-2.11v1.77h-4V47.16h4v7.46a4.67,4.67,0,0,1,4.1-2.13C394.2,52.49,396.54,55.14,396.54,59.09Zm-4.06,0a3,3,0,1,0-3,3.3A3,3,0,0,0,392.48,59.09Z" fill="#fff"/><path d="M411.38,52.83V65a5.92,5.92,0,0,1-1.79,4.52A6.58,6.58,0,0,1,405,71a7,7,0,0,1-4.63-1.3,4.43,4.43,0,0,1-1.56-3.3h4c.08,1.06.68,1.69,2.19,1.69s2.41-.86,2.41-2.81v-2a4.19,4.19,0,0,1-4,2.08c-3.2,0-4.63-2.13-4.63-5.25V52.83h4v6.68c0,1.61.54,2.7,2.21,2.7S407.4,61,407.4,59V52.83Z" fill="#fff"/><path d="M433.43,52.83V65a5.92,5.92,0,0,1-1.79,4.52A6.59,6.59,0,0,1,427,71a6.94,6.94,0,0,1-4.62-1.3,4.43,4.43,0,0,1-1.56-3.3h4c.08,1.06.68,1.69,2.18,1.69s2.42-.86,2.42-2.81v-2a4.2,4.2,0,0,1-4,2.08c-3.19,0-4.62-2.13-4.62-5.25V52.83h4v6.68c0,1.61.55,2.7,2.21,2.7S429.45,61,429.45,59V52.83Z" fill="#fff"/><path d="M435.72,59.09c0-3.82,2.65-6.6,7-6.6s6.94,2.78,6.94,6.6S447,65.7,442.69,65.7,435.72,62.91,435.72,59.09Zm10,0a3,3,0,1,0-6,0,3,3,0,1,0,6,0Z" fill="#fff"/><path d="M451.79,60.57V52.83h4v6.86c0,1.72.57,2.65,2.08,2.65,1.69,0,2.41-1.09,2.41-2.78V52.83h4V65.36h-4v-1.8a4.1,4.1,0,0,1-3.9,2.14C453.4,65.7,451.79,63.82,451.79,60.57Z" fill="#fff"/><path d="M467.41,63.07A2.58,2.58,0,1,1,470,65.62,2.55,2.55,0,0,1,467.41,63.07Z" fill="#fff"/><rect width="728" height="90" fill="none"/></g></g></svg>