<svg xmlns="http://www.w3.org/2000/svg" viewBox="0 0 728 90"><title>txt4b</title><g id="Layer_2" data-name="Layer 2"><g id="Layer_26" data-name="Layer 26"><path d="M381.79,61.59h4c0,.86.83,1.45,2.05,1.45.86,0,1.46-.41,1.46-1.14,0-.57-.29-.91-1.36-1.17l-2.62-.65a3.66,3.66,0,0,1-3.15-3.67c0-2.36,2.13-3.92,5.36-3.92,3.53,0,5.59,1.38,5.59,3.87h-3.93c0-.88-.65-1.35-1.71-1.35-.86,0-1.43.41-1.43,1s.36.94,1.37,1.2L390,58c2,.52,3.17,1.71,3.17,3.61,0,2.6-2.16,4.14-5.49,4.14C384.16,65.7,381.79,64,381.79,61.59Z" fill="#fff"/><path d="M408,60.18h-9.26c.08,1.64,1.17,2.53,2.94,2.53,1.22,0,2-.34,2.34-1.12h3.9c-.39,2.47-2.91,4.11-6.24,4.11-4.27,0-6.89-2.42-6.89-6.61s2.68-6.6,6.76-6.6c3.9,0,6.55,2.42,6.55,5.95A15.11,15.11,0,0,1,408,60.18Zm-3.83-2.47a2.35,2.35,0,0,0-2.65-2.54,2.51,2.51,0,0,0-2.78,2.54Z" fill="#fff"/><path d="M410.37,52.83h4v2.62a3.5,3.5,0,0,1,3.45-2.83,3.81,3.81,0,0,1,1,.1v3.69a9.14,9.14,0,0,0-1.19-.08c-2.16,0-3.3,1.41-3.3,4.19v4.84h-4Z" fill="#fff"/><path d="M419.86,52.83h4.39l2.81,7.87,2.81-7.87h4.42l-5.44,12.53h-3.58Z" fill="#fff"/><path d="M435.38,49.31a2.39,2.39,0,0,1,2.44-2.44,2.43,2.43,0,1,1,0,4.86A2.38,2.38,0,0,1,435.38,49.31Zm.47,3.52h3.95V65.36h-3.95Z" fill="#fff"/><path d="M442.11,59.09c0-4,2.58-6.6,6.71-6.6,3.75,0,6.19,2,6.5,5.09h-4c-.28-1.17-1-1.71-2.49-1.71-1.72,0-2.76,1.14-2.76,3.22s1,3.23,2.76,3.23c1.45,0,2.21-.53,2.49-1.62h4c-.31,3-2.75,5-6.5,5C444.69,65.7,442.11,63,442.11,59.09Z" fill="#fff"/><path d="M470.27,60.18H461c.07,1.64,1.17,2.53,2.93,2.53,1.23,0,2-.34,2.34-1.12h3.9c-.39,2.47-2.91,4.11-6.24,4.11-4.26,0-6.89-2.42-6.89-6.61s2.68-6.6,6.76-6.6c3.9,0,6.56,2.42,6.56,5.95A13.22,13.22,0,0,1,470.27,60.18Zm-3.82-2.47a2.35,2.35,0,0,0-2.65-2.54A2.5,2.5,0,0,0,461,57.71Z" fill="#fff"/><path d="M472.17,63.07a2.58,2.58,0,1,1,2.57,2.55A2.55,2.55,0,0,1,472.17,63.07Z" fill="#fff"/><rect width="728" height="90" fill="none"/></g></g></svg>