<svg xmlns="http://www.w3.org/2000/svg" viewBox="0 0 728 90"><title>txt4a</title><g id="Layer_2" data-name="Layer 2"><g id="Layer_26_copy" data-name="Layer 26 copy"><path d="M382.83,20.16H394v3.53h-6.91v4.92H394v3.46h-6.91v6.29h-4.22Z" fill="#fff"/><path d="M395.83,32.09c0-3.82,2.66-6.6,7-6.6s6.94,2.78,6.94,6.6-2.65,6.61-6.94,6.61S395.83,35.91,395.83,32.09Zm10,0a3,3,0,1,0-6,0,3,3,0,1,0,6,0Z" fill="#fff"/><path d="M412,25.83h4v2.62a3.5,3.5,0,0,1,3.46-2.83,3.81,3.81,0,0,1,1,.1v3.69a9.3,9.3,0,0,0-1.2-.08c-2.16,0-3.3,1.41-3.3,4.19v4.84h-4Z" fill="#fff"/><path d="M441.18,33.18h-9.26c.08,1.64,1.17,2.53,2.94,2.53,1.22,0,2-.34,2.34-1.12h3.9c-.39,2.47-2.91,4.11-6.24,4.11-4.26,0-6.89-2.42-6.89-6.61s2.68-6.6,6.76-6.6c3.9,0,6.55,2.42,6.55,6A13.16,13.16,0,0,1,441.18,33.18Zm-3.82-2.47a2.36,2.36,0,0,0-2.66-2.54,2.51,2.51,0,0,0-2.78,2.54Z" fill="#fff"/><path d="M446.27,32l-4.47-6.21h4.73l2.19,3.63,2.16-3.63h4.75L451.16,32l4.55,6.32H451l-2.23-3.75-2.26,3.75h-4.74Z" fill="#fff"/><path d="M456.15,32.09c0-4,2.58-6.6,6.71-6.6,3.75,0,6.19,2,6.5,5.09h-4c-.28-1.17-1-1.71-2.49-1.71-1.72,0-2.76,1.14-2.76,3.22s1,3.23,2.76,3.23c1.45,0,2.21-.53,2.49-1.62h4c-.31,3-2.75,5-6.5,5C458.73,38.7,456.15,36,456.15,32.09Z" fill="#fff"/><path d="M484.31,33.18h-9.25c.07,1.64,1.17,2.53,2.93,2.53,1.23,0,2-.34,2.34-1.12h3.9c-.39,2.47-2.91,4.11-6.24,4.11-4.26,0-6.89-2.42-6.89-6.61s2.68-6.6,6.76-6.6c3.9,0,6.56,2.42,6.56,6A13.22,13.22,0,0,1,484.31,33.18Zm-3.82-2.47a2.35,2.35,0,0,0-2.65-2.54,2.5,2.5,0,0,0-2.78,2.54Z" fill="#fff"/><path d="M500.54,32.09c0,3.93-2.42,6.61-5.88,6.61a4.55,4.55,0,0,1-4-2.11v7h-4V25.83h4v1.79a4.67,4.67,0,0,1,4.1-2.13C498.2,25.49,500.54,28.14,500.54,32.09Zm-4.06,0a3,3,0,1,0-6,0,3,3,0,1,0,6,0Z" fill="#fff"/><path d="M510.83,35.19v3.17a15.9,15.9,0,0,1-2.65.21c-1.87,0-4.45-.42-4.45-4.61V29h-2V25.83h2V22.11h4v3.72h2.84V29h-2.84v4.16c0,1.85.76,2.13,1.74,2.13A11.66,11.66,0,0,0,510.83,35.19Z" fill="#fff"/><path d="M512.65,22.31a2.46,2.46,0,1,1,2.45,2.42A2.4,2.4,0,0,1,512.65,22.31Zm.47,3.52h4V38.36h-4Z" fill="#fff"/><path d="M519.39,32.09c0-3.82,2.65-6.6,7-6.6s6.95,2.78,6.95,6.6-2.66,6.61-6.95,6.61S519.39,35.91,519.39,32.09Zm10,0a3,3,0,1,0-6,0,3,3,0,1,0,6,0Z" fill="#fff"/><path d="M535.58,25.83h4v1.81a4.26,4.26,0,0,1,4.06-2.15c3,0,4.57,1.71,4.57,5.12v7.75h-4V31.91c0-2.11-.6-3.07-2.21-3.07s-2.42,1-2.42,3v6.56h-4Z" fill="#fff"/><path d="M550.46,32.09c0-3.74,2.31-6.6,5.95-6.6a4.29,4.29,0,0,1,3.93,2.13V25.83h3.95V38.36h-3.95V36.59a4.51,4.51,0,0,1-4,2.11C552.61,38.7,550.46,35.86,550.46,32.09Zm10,0c0-1.79-1-3.28-3-3.28a3,3,0,0,0-3,3.28,3,3,0,0,0,3,3.3C559.48,35.39,560.49,33.91,560.49,32.09Z" fill="#fff"/><path d="M567.59,20.16h4v18.2h-4Z" fill="#fff"/><rect width="728" height="90" fill="none"/></g></g></svg>