<svg xmlns="http://www.w3.org/2000/svg" viewBox="0 0 728 90"><title>txt5</title><g id="Layer_2" data-name="Layer 2"><g id="Layer_28" data-name="Layer 28"><path d="M193.59,36.21v3.7h7.17a0,0,0,0,1,0,.05l-7.21,12.25a1.12,1.12,0,0,0-.21.7v.72h14V49.94h-7.77a0,0,0,0,1,0,0l7.28-12.41A.86.86,0,0,0,207,37v-.78Z" fill="#fff"/><path d="M211.65,36.21h4.08V53.63h-4.08Z" fill="#fff"/><path d="M244.65,50.15v3.48h-9.89V36.21h4V50.15Z" fill="#fff"/><path d="M230.9,50.15v3.48H221V36.21h4V50.15Z" fill="#fff"/><path d="M256,54.08a9.46,9.46,0,0,1-3.88-.76,8.8,8.8,0,0,1-2.91-2,8.66,8.66,0,0,1-1.82-2.92,9.88,9.88,0,0,1,0-6.89,8.71,8.71,0,0,1,1.82-2.93,9.1,9.1,0,0,1,2.91-2,9.63,9.63,0,0,1,3.88-.76,9.48,9.48,0,0,1,3.87.76,9,9,0,0,1,2.9,2,8.55,8.55,0,0,1,1.82,2.93,9.88,9.88,0,0,1,0,6.89,8.51,8.51,0,0,1-1.82,2.92,8.66,8.66,0,0,1-2.9,2A9.31,9.31,0,0,1,256,54.08Zm0-3.63a4.77,4.77,0,0,0,2.14-.46,4.93,4.93,0,0,0,1.61-1.23,5.55,5.55,0,0,0,1-1.77,6.27,6.27,0,0,0,0-4.13,5.44,5.44,0,0,0-1-1.77,4.93,4.93,0,0,0-1.61-1.23A4.77,4.77,0,0,0,256,39.4a4.83,4.83,0,0,0-2.14.46,5,5,0,0,0-1.6,1.23,5.44,5.44,0,0,0-1,1.77,6.27,6.27,0,0,0,0,4.13,5.55,5.55,0,0,0,1,1.77,5,5,0,0,0,1.6,1.23A4.83,4.83,0,0,0,256,50.45Z" fill="#fff"/><path d="M280,42.68l-3.46,11H273.2l-6.15-17.42h4.26l3.55,11.43,3.54-11.43h3.11l3.56,11.43,3.53-11.43h4.26l-6.15,17.42h-3.28Z" fill="#fff"/><path d="M74.21,36.21h7.22a7.21,7.21,0,0,1,2.9.49A4.68,4.68,0,0,1,86,37.89a3.82,3.82,0,0,1,.82,1.53,5.73,5.73,0,0,1,.22,1.5,3.72,3.72,0,0,1-.28,1.48,4.12,4.12,0,0,1-1.7,2A3.79,3.79,0,0,1,84,44.8a2.35,2.35,0,0,1,1,.26,3.78,3.78,0,0,1,1,.75A3.85,3.85,0,0,1,86.89,47a4.22,4.22,0,0,1,.34,1.72A6,6,0,0,1,87,50.27a4.19,4.19,0,0,1-.84,1.6,5,5,0,0,1-1.75,1.25,7,7,0,0,1-2.91.51H74.21Zm6.42,7.1a3.15,3.15,0,0,0,1.21-.2,2.26,2.26,0,0,0,.73-.51,1.81,1.81,0,0,0,.38-.69,3,3,0,0,0,.09-.69,2.56,2.56,0,0,0-.08-.65,1.76,1.76,0,0,0-.35-.66,2,2,0,0,0-.73-.52,3.15,3.15,0,0,0-1.25-.22H78.22v4.14Zm-2.41,3v4.28h2.51a3.15,3.15,0,0,0,1.21-.2,2,2,0,0,0,.73-.51,1.66,1.66,0,0,0,.37-.69,2.64,2.64,0,0,0,.1-.74,2.42,2.42,0,0,0-.1-.67,1.68,1.68,0,0,0-.36-.7,2,2,0,0,0-.73-.55,2.78,2.78,0,0,0-1.19-.22Z" fill="#fff"/><path d="M111,47.86a3.05,3.05,0,0,0,.78,2.22,2.66,2.66,0,0,0,2,.79,2.44,2.44,0,0,0,1.63-.56,1.85,1.85,0,0,0,.66-1.48,1.71,1.71,0,0,0-.21-.88,2.29,2.29,0,0,0-.57-.64,4.11,4.11,0,0,0-.86-.48l-1.07-.44c-.8-.3-1.56-.6-2.28-.89a7.61,7.61,0,0,1-1.88-1.09,4.82,4.82,0,0,1-1.27-1.53,4.72,4.72,0,0,1-.47-2.21,4.32,4.32,0,0,1,.51-2.12A4.67,4.67,0,0,1,109.3,37a5.68,5.68,0,0,1,2-.93,8.4,8.4,0,0,1,2.3-.32,7.56,7.56,0,0,1,2.72.45,5.59,5.59,0,0,1,1.94,1.22,5.1,5.1,0,0,1,1.15,1.77,5.73,5.73,0,0,1,.39,2.11h-4a2.83,2.83,0,0,0-.56-1.84,2,2,0,0,0-1.61-.67,2.46,2.46,0,0,0-1.49.45,1.56,1.56,0,0,0-.62,1.34,1.64,1.64,0,0,0,.68,1.38,6.77,6.77,0,0,0,1.81.91q1.06.38,2.16.81a9,9,0,0,1,2,1.07,5.38,5.38,0,0,1,1.43,1.54,4.17,4.17,0,0,1,.56,2.21,5.55,5.55,0,0,1-.49,2.39,4.85,4.85,0,0,1-1.35,1.75,6,6,0,0,1-2.07,1.07,9.06,9.06,0,0,1-2.64.36,8.14,8.14,0,0,1-2.6-.41,5.8,5.8,0,0,1-2.09-1.21,5.49,5.49,0,0,1-1.38-2,6.66,6.66,0,0,1-.5-2.65Z" fill="#fff"/><path d="M156.13,54.08a9.46,9.46,0,0,1-3.88-.76,8.8,8.8,0,0,1-2.91-2,8.66,8.66,0,0,1-1.82-2.92,9.88,9.88,0,0,1,0-6.89,8.71,8.71,0,0,1,1.82-2.93,9.1,9.1,0,0,1,2.91-2,9.63,9.63,0,0,1,3.88-.76,9.48,9.48,0,0,1,3.87.76,9,9,0,0,1,2.9,2,8.71,8.71,0,0,1,1.82,2.93,9.88,9.88,0,0,1,0,6.89,8.73,8.73,0,0,1-4.72,5A9.31,9.31,0,0,1,156.13,54.08Zm0-3.63a4.77,4.77,0,0,0,2.14-.46,5,5,0,0,0,1.61-1.23,5.74,5.74,0,0,0,1-1.77,6.27,6.27,0,0,0,0-4.13,5.63,5.63,0,0,0-1-1.77,5,5,0,0,0-1.61-1.23,5.21,5.21,0,0,0-4.28,0,5,5,0,0,0-1.6,1.23,5.44,5.44,0,0,0-1,1.77,6.27,6.27,0,0,0,0,4.13,5.55,5.55,0,0,0,1,1.77A5,5,0,0,0,154,50,4.8,4.8,0,0,0,156.13,50.45Z" fill="#fff"/><path d="M173.86,39.6v4.7h6v3.31h-6v6h-4V36.21h11.25V39.6Z" fill="#fff"/><path d="M95.4,39.45v4h6.43v3.16H95.4V50.4h6.91v3.23H91.47V36.21h10.84v3.24Z" fill="#fff"/><path d="M127.42,39.7h-4.31V36.21h12.58V39.7h-4.34V53.63h-3.93Z" fill="#fff"/><rect width="728" height="90" fill="none"/></g></g></svg>