<svg xmlns="http://www.w3.org/2000/svg" viewBox="0 0 728 90"><title>txt6</title><g id="Layer_2" data-name="Layer 2"><g id="Layer_29" data-name="Layer 29"><path d="M334.88,39.52h1.82l2.49,7.63,2.35-7.63h1.28l2.35,7.63,2.49-7.63h1.82L345.85,50H344.6l-2.41-7.49L339.76,50h-1.25Z" fill="#fff"/><path d="M349,46.52a3.69,3.69,0,1,1,3.69,3.68A3.51,3.51,0,0,1,349,46.52Zm5.74,0a2.06,2.06,0,1,0-2,2.22A2,2,0,0,0,354.77,46.52Z" fill="#fff"/><path d="M358,43h1.64v1.35a1.88,1.88,0,0,1,1.86-1.44,2.44,2.44,0,0,1,.64.06v1.5a4.57,4.57,0,0,0-.64,0c-1.16,0-1.86.87-1.86,2.46V50H358Z" fill="#fff"/><path d="M366.79,46.37l3,3.65h-2.15l-2.58-3.2V50h-1.62V39.52h1.62V46.1L367.75,43h2.07Z" fill="#fff"/><path d="M374,43h1.8l1.45,4.62L378.79,43h1.77l1.51,4.62L383.53,43h1.8l-2.58,7h-1.38l-1.7-5L378,50H376.6Z" fill="#fff"/><path d="M386.05,40.81A1.22,1.22,0,1,1,387.26,42,1.18,1.18,0,0,1,386.05,40.81Zm.4,2.22h1.62v7h-1.62Z" fill="#fff"/><path d="M394.16,48.58V50a8.46,8.46,0,0,1-1.21.09c-.8,0-2.27-.11-2.27-2.46V44.39H389.5V43h1.18V40.91h1.64V43h1.6v1.36h-1.6v2.88c0,1.22.37,1.37,1,1.37A6.14,6.14,0,0,0,394.16,48.58Z" fill="#fff"/><path d="M402.13,45.62V50h-1.64V46.37c0-1.48-.39-2.13-1.53-2.13s-1.66.71-1.66,1.94V50h-1.64V39.52h1.64V44a2.47,2.47,0,0,1,2.28-1.15C401.26,42.85,402.13,43.79,402.13,45.62Z" fill="#fff"/><path d="M411.89,48.58V50a8.46,8.46,0,0,1-1.21.09c-.8,0-2.27-.11-2.27-2.46V44.39h-1.18V43h1.18V40.91h1.64V43h1.6v1.36h-1.6v2.88c0,1.22.37,1.37,1,1.37A6.14,6.14,0,0,0,411.89,48.58Z" fill="#fff"/><path d="M419.86,45.62V50h-1.64V46.37c0-1.48-.39-2.13-1.53-2.13S415,45,415,46.18V50h-1.64V39.52H415V44a2.47,2.47,0,0,1,2.28-1.15C419,42.85,419.86,43.79,419.86,45.62Z" fill="#fff"/><path d="M428.17,47.06H423a1.71,1.71,0,0,0,1.95,1.71,1.53,1.53,0,0,0,1.56-.79h1.65a3,3,0,0,1-3.21,2.22,3.36,3.36,0,0,1-3.57-3.68,3.37,3.37,0,0,1,3.51-3.67,3.16,3.16,0,0,1,3.34,3.31C428.21,46.45,428.2,46.67,428.17,47.06Zm-1.56-1.24a1.58,1.58,0,0,0-1.77-1.68A1.67,1.67,0,0,0,423,45.82Z" fill="#fff"/><path d="M440.84,46.52a3.41,3.41,0,0,1-3.43,3.68,2.69,2.69,0,0,1-2.25-1.13v1h-1.62V39.52h1.62V44a2.82,2.82,0,0,1,2.35-1.12C439.51,42.85,440.84,44.32,440.84,46.52Zm-1.63,0a2.06,2.06,0,1,0-2,2.22A2,2,0,0,0,439.21,46.52Z" fill="#fff"/><path d="M448.7,47.06h-5.19a1.71,1.71,0,0,0,1.95,1.71A1.53,1.53,0,0,0,447,48h1.65a3,3,0,0,1-3.21,2.22,3.37,3.37,0,0,1-3.57-3.68,3.37,3.37,0,0,1,3.51-3.67,3.17,3.17,0,0,1,3.35,3.31C448.75,46.45,448.73,46.67,448.7,47.06Zm-1.56-1.24a1.57,1.57,0,0,0-1.77-1.68,1.68,1.68,0,0,0-1.86,1.68Z" fill="#fff"/><path d="M449.8,47.87h1.63c0,.6.59,1,1.43,1,.61,0,1-.33,1-.82s-.16-.63-.91-.83l-1.4-.37a1.94,1.94,0,0,1-1.53-2c0-1.18,1.13-2,2.69-2,1.71,0,2.76.82,2.76,2.17h-1.61c0-.58-.45-.93-1.21-.93-.59,0-1,.3-1,.72s.23.63.87.81l1.4.41a2,2,0,0,1,1.62,2c0,1.37-1.07,2.18-2.76,2.18S449.8,49.21,449.8,47.87Z" fill="#fff"/><path d="M461,48.58V50a8.75,8.75,0,0,1-1.22.09c-.79,0-2.26-.11-2.26-2.46V44.39h-1.19V43h1.19V40.91h1.63V43h1.61v1.36h-1.61v2.88c0,1.22.38,1.37,1,1.37A6.31,6.31,0,0,0,461,48.58Z" fill="#fff"/><path d="M465.74,46.52a3.69,3.69,0,1,1,3.69,3.68A3.51,3.51,0,0,1,465.74,46.52Zm5.75,0a2.06,2.06,0,1,0-2.06,2.22A2,2,0,0,0,471.49,46.52Z" fill="#fff"/><path d="M476.86,42V43h1.83v1.36h-1.83V50h-1.64V44.39H473.8V43h1.42V42a2.29,2.29,0,0,1,2.37-2.58,3.88,3.88,0,0,1,1.1.13v1.38c-.23,0-.41-.06-.65-.06C477.55,40.88,476.86,41,476.86,42Z" fill="#fff"/><path d="M487.7,48.58V50a8.46,8.46,0,0,1-1.21.09c-.8,0-2.27-.11-2.27-2.46V44.39H483V43h1.18V40.91h1.64V43h1.6v1.36h-1.6v2.88c0,1.22.37,1.37,1,1.37A6.14,6.14,0,0,0,487.7,48.58Z" fill="#fff"/><path d="M495.67,45.62V50H494V46.37c0-1.48-.39-2.13-1.53-2.13s-1.66.71-1.66,1.94V50H489.2V39.52h1.64V44a2.47,2.47,0,0,1,2.28-1.15C494.8,42.85,495.67,43.79,495.67,45.62Z" fill="#fff"/><path d="M504,47.06h-5.19a1.71,1.71,0,0,0,1.95,1.71A1.53,1.53,0,0,0,502.3,48H504a3,3,0,0,1-3.21,2.22,3.36,3.36,0,0,1-3.57-3.68,3.37,3.37,0,0,1,3.51-3.67A3.16,3.16,0,0,1,504,46.16C504,46.45,504,46.67,504,47.06Zm-1.56-1.24a1.58,1.58,0,0,0-1.77-1.68,1.67,1.67,0,0,0-1.86,1.68Z" fill="#fff"/><path d="M516.65,46.52a3.41,3.41,0,0,1-3.43,3.68A2.69,2.69,0,0,1,511,49.07v1h-1.62V39.52H511V44a2.82,2.82,0,0,1,2.35-1.12C515.32,42.85,516.65,44.32,516.65,46.52Zm-1.63,0a2.06,2.06,0,1,0-2,2.22A2,2,0,0,0,515,46.52Z" fill="#fff"/><path d="M524.51,47.06h-5.19a1.71,1.71,0,0,0,1.95,1.71,1.53,1.53,0,0,0,1.56-.79h1.65a3,3,0,0,1-3.21,2.22,3.37,3.37,0,0,1-3.57-3.68,3.37,3.37,0,0,1,3.51-3.67,3.17,3.17,0,0,1,3.35,3.31C524.56,46.45,524.54,46.67,524.51,47.06ZM523,45.82a1.57,1.57,0,0,0-1.77-1.68,1.68,1.68,0,0,0-1.86,1.68Z" fill="#fff"/><path d="M525.61,47.87h1.63c0,.6.59,1,1.43,1,.61,0,1-.33,1-.82s-.16-.63-.91-.83l-1.4-.37a1.94,1.94,0,0,1-1.53-2c0-1.18,1.13-2,2.69-2,1.71,0,2.76.82,2.76,2.17h-1.61c0-.58-.45-.93-1.21-.93-.59,0-1,.3-1,.72s.23.63.87.81l1.4.41a2,2,0,0,1,1.62,2c0,1.37-1.07,2.18-2.76,2.18S525.61,49.21,525.61,47.87Z" fill="#fff"/><path d="M536.83,48.58V50a8.75,8.75,0,0,1-1.22.09c-.79,0-2.26-.11-2.26-2.46V44.39h-1.19V43h1.19V40.91H535V43h1.61v1.36H535v2.88c0,1.22.38,1.37,1,1.37A6.31,6.31,0,0,0,536.83,48.58Z" fill="#fff"/><path d="M538.18,48.86a1.25,1.25,0,0,1,1.26-1.26,1.27,1.27,0,0,1,1.27,1.26,1.29,1.29,0,0,1-1.27,1.28A1.27,1.27,0,0,1,538.18,48.86Z" fill="#fff"/><rect width="728" height="90" fill="none"/></g></g></svg>